# Tiled2Unity generated file. Do not modify by hand.
# Wavefront file for 'mapa-1_mesh_0003.obj'

# Vertices (Count = 244)
v -14 -3 0
v -15 -3 0
v -15 -2 0
v -14 -2 0
v -15 -3 0
v -16 -3 0
v -16 -2 0
v -15 -2 0
v -16 -3 0
v -17 -3 0
v -17 -2 0
v -16 -2 0
v -17 -3 0
v -18 -3 0
v -18 -2 0
v -17 -2 0
v -18 -3 0
v -19 -3 0
v -19 -2 0
v -18 -2 0
v -19 -3 0
v -20 -3 0
v -20 -2 0
v -19 -2 0
v -20 -3 0
v -21 -3 0
v -21 -2 0
v -20 -2 0
v -14 -4 0
v -15 -4 0
v -15 -3 0
v -14 -3 0
v -20 -4 0
v -21 -4 0
v -21 -3 0
v -20 -3 0
v -2 -5 0
v -3 -5 0
v -3 -4 0
v -2 -4 0
v -3 -5 0
v -4 -5 0
v -4 -4 0
v -3 -4 0
v -4 -5 0
v -5 -5 0
v -5 -4 0
v -4 -4 0
v -5 -5 0
v -6 -5 0
v -6 -4 0
v -5 -4 0
v -6 -5 0
v -7 -5 0
v -7 -4 0
v -6 -4 0
v -7 -5 0
v -8 -5 0
v -8 -4 0
v -7 -4 0
v -14 -5 0
v -15 -5 0
v -15 -4 0
v -14 -4 0
v -20 -5 0
v -21 -5 0
v -21 -4 0
v -20 -4 0
v -14 -6 0
v -15 -6 0
v -15 -5 0
v -14 -5 0
v -20 -6 0
v -21 -6 0
v -21 -5 0
v -20 -5 0
v -2 -7 0
v -3 -7 0
v -3 -6 0
v -2 -6 0
v -3 -7 0
v -4 -7 0
v -4 -6 0
v -3 -6 0
v -4 -7 0
v -5 -7 0
v -5 -6 0
v -4 -6 0
v -5 -7 0
v -6 -7 0
v -6 -6 0
v -5 -6 0
v -6 -7 0
v -7 -7 0
v -7 -6 0
v -6 -6 0
v -7 -7 0
v -8 -7 0
v -8 -6 0
v -7 -6 0
v -14 -7 0
v -15 -7 0
v -15 -6 0
v -14 -6 0
v -20 -7 0
v -21 -7 0
v -21 -6 0
v -20 -6 0
v -14 -8 0
v -15 -8 0
v -15 -7 0
v -14 -7 0
v -20 -8 0
v -21 -8 0
v -21 -7 0
v -20 -7 0
v -25 -9 0
v -26 -9 0
v -26 -8 0
v -25 -8 0
v -26 -9 0
v -27 -9 0
v -27 -8 0
v -26 -8 0
v -27 -9 0
v -28 -9 0
v -28 -8 0
v -27 -8 0
v -28 -9 0
v -29 -9 0
v -29 -8 0
v -28 -8 0
v -29 -9 0
v -30 -9 0
v -30 -8 0
v -29 -8 0
v -25 -10 0
v -26 -10 0
v -26 -9 0
v -25 -9 0
v -25 -11 0
v -26 -11 0
v -26 -10 0
v -25 -10 0
v -1 -12 0
v -2 -12 0
v -2 -11 0
v -1 -11 0
v -7 -12 0
v -8 -12 0
v -8 -11 0
v -7 -11 0
v -25 -12 0
v -26 -12 0
v -26 -11 0
v -25 -11 0
v -1 -13 0
v -2 -13 0
v -2 -12 0
v -1 -12 0
v -7 -13 0
v -8 -13 0
v -8 -12 0
v -7 -12 0
v -25 -13 0
v -26 -13 0
v -26 -12 0
v -25 -12 0
v -1 -14 0
v -2 -14 0
v -2 -13 0
v -1 -13 0
v -7 -14 0
v -8 -14 0
v -8 -13 0
v -7 -13 0
v -25 -14 0
v -26 -14 0
v -26 -13 0
v -25 -13 0
v -1 -15 0
v -2 -15 0
v -2 -14 0
v -1 -14 0
v -7 -15 0
v -8 -15 0
v -8 -14 0
v -7 -14 0
v -25 -15 0
v -26 -15 0
v -26 -14 0
v -25 -14 0
v -1 -16 0
v -2 -16 0
v -2 -15 0
v -1 -15 0
v -7 -16 0
v -8 -16 0
v -8 -15 0
v -7 -15 0
v -1 -17 0
v -2 -17 0
v -2 -16 0
v -1 -16 0
v -7 -17 0
v -8 -17 0
v -8 -16 0
v -7 -16 0
v -1 -18 0
v -2 -18 0
v -2 -17 0
v -1 -17 0
v -7 -18 0
v -8 -18 0
v -8 -17 0
v -7 -17 0
v -1 -19 0
v -2 -19 0
v -2 -18 0
v -1 -18 0
v -2 -19 0
v -3 -19 0
v -3 -18 0
v -2 -18 0
v -3 -19 0
v -4 -19 0
v -4 -18 0
v -3 -18 0
v -4 -19 0
v -5 -19 0
v -5 -18 0
v -4 -18 0
v -5 -19 0
v -6 -19 0
v -6 -18 0
v -5 -18 0
v -6 -19 0
v -7 -19 0
v -7 -18 0
v -6 -18 0
v -7 -19 0
v -8 -19 0
v -8 -18 0
v -7 -18 0

# Texture cooridinates (Count = 20)
vt 0.05 0.5
vt 0.075 0.5
vt 0.075 0.5277778
vt 0.05 0.5277778
vt 0.1 0.5
vt 0.125 0.5
vt 0.125 0.5277778
vt 0.1 0.5277778
vt 0.1 0.4722222
vt 0.125 0.4722222
vt 0 0.4444444
vt 0.025 0.4444444
vt 0.025 0.4722222
vt 0 0.4722222
vt 0.025 0.5
vt 0 0.5
vt 0.025 0.5277778
vt 0 0.5277778
vt 0.05 0.4722222
vt 0.075 0.4722222

# Normal
vn 0 0 -1

# Mesh description
g mapa-1_mesh_0003

# Faces
f 1/1/1 2/2/1 3/3/1 4/4/1
f 5/5/1 6/6/1 7/7/1 8/8/1
f 9/5/1 10/6/1 11/7/1 12/8/1
f 13/5/1 14/6/1 15/7/1 16/8/1
f 17/5/1 18/6/1 19/7/1 20/8/1
f 21/5/1 22/6/1 23/7/1 24/8/1
f 25/2/1 26/5/1 27/8/1 28/3/1
f 29/9/1 30/10/1 31/6/1 32/5/1
f 33/9/1 34/10/1 35/6/1 36/5/1
f 37/11/1 38/12/1 39/13/1 40/14/1
f 41/5/1 42/6/1 43/7/1 44/8/1
f 45/5/1 46/6/1 47/7/1 48/8/1
f 49/5/1 50/6/1 51/7/1 52/8/1
f 53/5/1 54/6/1 55/7/1 56/8/1
f 57/5/1 58/6/1 59/7/1 60/8/1
f 61/9/1 62/10/1 63/6/1 64/5/1
f 65/9/1 66/10/1 67/6/1 68/5/1
f 69/9/1 70/10/1 71/6/1 72/5/1
f 73/9/1 74/10/1 75/6/1 76/5/1
f 77/11/1 78/12/1 79/13/1 80/14/1
f 81/5/1 82/6/1 83/7/1 84/8/1
f 85/5/1 86/6/1 87/7/1 88/8/1
f 89/5/1 90/6/1 91/7/1 92/8/1
f 93/5/1 94/6/1 95/7/1 96/8/1
f 97/5/1 98/6/1 99/7/1 100/8/1
f 101/9/1 102/10/1 103/6/1 104/5/1
f 105/9/1 106/10/1 107/6/1 108/5/1
f 109/14/1 110/13/1 111/15/1 112/16/1
f 113/14/1 114/13/1 115/15/1 116/16/1
f 117/1/1 118/2/1 119/3/1 120/4/1
f 121/5/1 122/6/1 123/7/1 124/8/1
f 125/5/1 126/6/1 127/7/1 128/8/1
f 129/5/1 130/6/1 131/7/1 132/8/1
f 133/5/1 134/6/1 135/7/1 136/8/1
f 137/9/1 138/10/1 139/6/1 140/5/1
f 141/9/1 142/10/1 143/6/1 144/5/1
f 145/16/1 146/15/1 147/17/1 148/18/1
f 149/16/1 150/15/1 151/17/1 152/18/1
f 153/9/1 154/10/1 155/6/1 156/5/1
f 157/9/1 158/10/1 159/6/1 160/5/1
f 161/9/1 162/10/1 163/6/1 164/5/1
f 165/9/1 166/10/1 167/6/1 168/5/1
f 169/9/1 170/10/1 171/6/1 172/5/1
f 173/9/1 174/10/1 175/6/1 176/5/1
f 177/9/1 178/10/1 179/6/1 180/5/1
f 181/9/1 182/10/1 183/6/1 184/5/1
f 185/9/1 186/10/1 187/6/1 188/5/1
f 189/14/1 190/13/1 191/15/1 192/16/1
f 193/9/1 194/10/1 195/6/1 196/5/1
f 197/9/1 198/10/1 199/6/1 200/5/1
f 201/9/1 202/10/1 203/6/1 204/5/1
f 205/9/1 206/10/1 207/6/1 208/5/1
f 209/9/1 210/10/1 211/6/1 212/5/1
f 213/9/1 214/10/1 215/6/1 216/5/1
f 217/19/1 218/20/1 219/2/1 220/1/1
f 221/5/1 222/6/1 223/7/1 224/8/1
f 225/5/1 226/6/1 227/7/1 228/8/1
f 229/5/1 230/6/1 231/7/1 232/8/1
f 233/5/1 234/6/1 235/7/1 236/8/1
f 237/5/1 238/6/1 239/7/1 240/8/1
f 241/20/1 242/9/1 243/5/1 244/2/1

