# Tiled2Unity generated file. Do not modify by hand.
# Wavefront file for 'mapa2_v3_huertos_mesh_0004.obj'

# Vertices (Count = 300)
v -14 -3 0
v -15 -3 0
v -15 -2 0
v -14 -2 0
v -15 -3 0
v -16 -3 0
v -16 -2 0
v -15 -2 0
v -16 -3 0
v -17 -3 0
v -17 -2 0
v -16 -2 0
v -18 -3 0
v -19 -3 0
v -19 -2 0
v -18 -2 0
v -19 -3 0
v -20 -3 0
v -20 -2 0
v -19 -2 0
v -20 -3 0
v -21 -3 0
v -21 -2 0
v -20 -2 0
v -14 -4 0
v -15 -4 0
v -15 -3 0
v -14 -3 0
v -20 -4 0
v -21 -4 0
v -21 -3 0
v -20 -3 0
v -2 -5 0
v -3 -5 0
v -3 -4 0
v -2 -4 0
v -3 -5 0
v -4 -5 0
v -4 -4 0
v -3 -4 0
v -4 -5 0
v -5 -5 0
v -5 -4 0
v -4 -4 0
v -5 -5 0
v -6 -5 0
v -6 -4 0
v -5 -4 0
v -6 -5 0
v -7 -5 0
v -7 -4 0
v -6 -4 0
v -7 -5 0
v -8 -5 0
v -8 -4 0
v -7 -4 0
v -14 -5 0
v -15 -5 0
v -15 -4 0
v -14 -4 0
v -20 -5 0
v -21 -5 0
v -21 -4 0
v -20 -4 0
v -14 -6 0
v -15 -6 0
v -15 -5 0
v -14 -5 0
v -20 -6 0
v -21 -6 0
v -21 -5 0
v -20 -5 0
v -2 -7 0
v -3 -7 0
v -3 -6 0
v -2 -6 0
v -3 -7 0
v -4 -7 0
v -4 -6 0
v -3 -6 0
v -4 -7 0
v -5 -7 0
v -5 -6 0
v -4 -6 0
v -5 -7 0
v -6 -7 0
v -6 -6 0
v -5 -6 0
v -6 -7 0
v -7 -7 0
v -7 -6 0
v -6 -6 0
v -7 -7 0
v -8 -7 0
v -8 -6 0
v -7 -6 0
v -14 -7 0
v -15 -7 0
v -15 -6 0
v -14 -6 0
v -20 -7 0
v -21 -7 0
v -21 -6 0
v -20 -6 0
v -14 -8 0
v -15 -8 0
v -15 -7 0
v -14 -7 0
v -20 -8 0
v -21 -8 0
v -21 -7 0
v -20 -7 0
v -14 -9 0
v -15 -9 0
v -15 -8 0
v -14 -8 0
v -15 -9 0
v -16 -9 0
v -16 -8 0
v -15 -8 0
v -16 -9 0
v -17 -9 0
v -17 -8 0
v -16 -8 0
v -18 -9 0
v -19 -9 0
v -19 -8 0
v -18 -8 0
v -19 -9 0
v -20 -9 0
v -20 -8 0
v -19 -8 0
v -23 -9 0
v -24 -9 0
v -24 -8 0
v -23 -8 0
v -24 -9 0
v -25 -9 0
v -25 -8 0
v -24 -8 0
v -25 -9 0
v -26 -9 0
v -26 -8 0
v -25 -8 0
v -26 -9 0
v -27 -9 0
v -27 -8 0
v -26 -8 0
v -27 -9 0
v -28 -9 0
v -28 -8 0
v -27 -8 0
v -28 -9 0
v -29 -9 0
v -29 -8 0
v -28 -8 0
v -29 -9 0
v -30 -9 0
v -30 -8 0
v -29 -8 0
v -23 -10 0
v -24 -10 0
v -24 -9 0
v -23 -9 0
v -1 -11 0
v -2 -11 0
v -2 -10 0
v -1 -10 0
v -2 -11 0
v -3 -11 0
v -3 -10 0
v -2 -10 0
v -3 -11 0
v -4 -11 0
v -4 -10 0
v -3 -10 0
v -5 -11 0
v -6 -11 0
v -6 -10 0
v -5 -10 0
v -6 -11 0
v -7 -11 0
v -7 -10 0
v -6 -10 0
v -7 -11 0
v -8 -11 0
v -8 -10 0
v -7 -10 0
v -23 -11 0
v -24 -11 0
v -24 -10 0
v -23 -10 0
v -1 -12 0
v -2 -12 0
v -2 -11 0
v -1 -11 0
v -7 -12 0
v -8 -12 0
v -8 -11 0
v -7 -11 0
v -23 -12 0
v -24 -12 0
v -24 -11 0
v -23 -11 0
v -1 -13 0
v -2 -13 0
v -2 -12 0
v -1 -12 0
v -7 -13 0
v -8 -13 0
v -8 -12 0
v -7 -12 0
v -23 -13 0
v -24 -13 0
v -24 -12 0
v -23 -12 0
v -1 -14 0
v -2 -14 0
v -2 -13 0
v -1 -13 0
v -7 -14 0
v -8 -14 0
v -8 -13 0
v -7 -13 0
v -23 -14 0
v -24 -14 0
v -24 -13 0
v -23 -13 0
v -1 -15 0
v -2 -15 0
v -2 -14 0
v -1 -14 0
v -7 -15 0
v -8 -15 0
v -8 -14 0
v -7 -14 0
v -23 -15 0
v -24 -15 0
v -24 -14 0
v -23 -14 0
v -1 -16 0
v -2 -16 0
v -2 -15 0
v -1 -15 0
v -1 -17 0
v -2 -17 0
v -2 -16 0
v -1 -16 0
v -7 -17 0
v -8 -17 0
v -8 -16 0
v -7 -16 0
v -1 -18 0
v -2 -18 0
v -2 -17 0
v -1 -17 0
v -4 -18 0
v -5 -18 0
v -5 -17 0
v -4 -17 0
v -5 -18 0
v -6 -18 0
v -6 -17 0
v -5 -17 0
v -6 -18 0
v -7 -18 0
v -7 -17 0
v -6 -17 0
v -7 -18 0
v -8 -18 0
v -8 -17 0
v -7 -17 0
v -1 -19 0
v -2 -19 0
v -2 -18 0
v -1 -18 0
v -2 -19 0
v -3 -19 0
v -3 -18 0
v -2 -18 0
v -3 -19 0
v -4 -19 0
v -4 -18 0
v -3 -18 0
v -4 -19 0
v -5 -19 0
v -5 -18 0
v -4 -18 0
v -5 -19 0
v -6 -19 0
v -6 -18 0
v -5 -18 0
v -6 -19 0
v -7 -19 0
v -7 -18 0
v -6 -18 0
v -7 -19 0
v -8 -19 0
v -8 -18 0
v -7 -18 0

# Texture cooridinates (Count = 25)
vt 0.05 0.5
vt 0.075 0.5
vt 0.075 0.5277778
vt 0.05 0.5277778
vt 0.1 0.5
vt 0.125 0.5
vt 0.125 0.5277778
vt 0.1 0.5277778
vt 0.025 0.4444444
vt 0.05 0.4444444
vt 0.05 0.4722222
vt 0.025 0.4722222
vt 0 0.4444444
vt 0 0.4722222
vt 0.1 0.4722222
vt 0.125 0.4722222
vt 0.075 0.4722222
vt 0.025 0.5
vt 0 0.5
vt 0.025 0.5277778
vt 0 0.5277778
vt 0.025 0.02777779
vt 0.05 0.02777779
vt 0.05 0.05555558
vt 0.025 0.05555558

# Normal
vn 0 0 -1

# Mesh description
g mapa2_v3_huertos_mesh_0004

# Faces
f 1/1/1 2/2/1 3/3/1 4/4/1
f 5/5/1 6/6/1 7/7/1 8/8/1
f 9/9/1 10/10/1 11/11/1 12/12/1
f 13/13/1 14/9/1 15/12/1 16/14/1
f 17/5/1 18/6/1 19/7/1 20/8/1
f 21/2/1 22/5/1 23/8/1 24/3/1
f 25/15/1 26/16/1 27/6/1 28/5/1
f 29/15/1 30/16/1 31/6/1 32/5/1
f 33/13/1 34/9/1 35/12/1 36/14/1
f 37/5/1 38/6/1 39/7/1 40/8/1
f 41/5/1 42/6/1 43/7/1 44/8/1
f 45/5/1 46/6/1 47/7/1 48/8/1
f 49/5/1 50/6/1 51/7/1 52/8/1
f 53/9/1 54/10/1 55/11/1 56/12/1
f 57/15/1 58/16/1 59/6/1 60/5/1
f 61/15/1 62/16/1 63/6/1 64/5/1
f 65/15/1 66/16/1 67/6/1 68/5/1
f 69/15/1 70/16/1 71/6/1 72/5/1
f 73/13/1 74/9/1 75/12/1 76/14/1
f 77/5/1 78/6/1 79/7/1 80/8/1
f 81/5/1 82/6/1 83/7/1 84/8/1
f 85/5/1 86/6/1 87/7/1 88/8/1
f 89/5/1 90/6/1 91/7/1 92/8/1
f 93/9/1 94/10/1 95/11/1 96/12/1
f 97/15/1 98/16/1 99/6/1 100/5/1
f 101/15/1 102/16/1 103/6/1 104/5/1
f 105/15/1 106/16/1 107/6/1 108/5/1
f 109/15/1 110/16/1 111/6/1 112/5/1
f 113/11/1 114/17/1 115/2/1 116/1/1
f 117/5/1 118/6/1 119/7/1 120/8/1
f 121/9/1 122/10/1 123/11/1 124/12/1
f 125/13/1 126/9/1 127/12/1 128/14/1
f 129/5/1 130/6/1 131/7/1 132/8/1
f 133/1/1 134/2/1 135/3/1 136/4/1
f 137/5/1 138/6/1 139/7/1 140/8/1
f 141/5/1 142/6/1 143/7/1 144/8/1
f 145/5/1 146/6/1 147/7/1 148/8/1
f 149/5/1 150/6/1 151/7/1 152/8/1
f 153/5/1 154/6/1 155/7/1 156/8/1
f 157/5/1 158/6/1 159/7/1 160/8/1
f 161/15/1 162/16/1 163/6/1 164/5/1
f 165/1/1 166/2/1 167/3/1 168/4/1
f 169/5/1 170/6/1 171/7/1 172/8/1
f 173/9/1 174/10/1 175/11/1 176/12/1
f 177/13/1 178/9/1 179/12/1 180/14/1
f 181/5/1 182/6/1 183/7/1 184/8/1
f 185/2/1 186/5/1 187/8/1 188/3/1
f 189/15/1 190/16/1 191/6/1 192/5/1
f 193/15/1 194/16/1 195/6/1 196/5/1
f 197/15/1 198/16/1 199/6/1 200/5/1
f 201/15/1 202/16/1 203/6/1 204/5/1
f 205/15/1 206/16/1 207/6/1 208/5/1
f 209/15/1 210/16/1 211/6/1 212/5/1
f 213/15/1 214/16/1 215/6/1 216/5/1
f 217/15/1 218/16/1 219/6/1 220/5/1
f 221/15/1 222/16/1 223/6/1 224/5/1
f 225/15/1 226/16/1 227/6/1 228/5/1
f 229/15/1 230/16/1 231/6/1 232/5/1
f 233/14/1 234/12/1 235/18/1 236/19/1
f 237/14/1 238/12/1 239/18/1 240/19/1
f 241/15/1 242/16/1 243/6/1 244/5/1
f 245/15/1 246/16/1 247/6/1 248/5/1
f 249/19/1 250/18/1 251/20/1 252/21/1
f 253/15/1 254/16/1 255/6/1 256/5/1
f 257/22/1 258/23/1 259/24/1 260/25/1
f 261/22/1 262/23/1 263/24/1 264/25/1
f 265/22/1 266/23/1 267/24/1 268/25/1
f 269/15/1 270/16/1 271/6/1 272/5/1
f 273/11/1 274/17/1 275/2/1 276/1/1
f 277/5/1 278/6/1 279/7/1 280/8/1
f 281/5/1 282/6/1 283/7/1 284/8/1
f 285/5/1 286/6/1 287/7/1 288/8/1
f 289/5/1 290/6/1 291/7/1 292/8/1
f 293/5/1 294/6/1 295/7/1 296/8/1
f 297/17/1 298/15/1 299/5/1 300/2/1

