# Tiled2Unity generated file. Do not modify by hand.
# Wavefront file for 'mapa4_v1_mesh_0005.obj'

# Vertices (Count = 652)
v -2 -2 0
v -3 -2 0
v -3 -1 0
v -2 -1 0
v -8 -2 0
v -9 -2 0
v -9 -1 0
v -8 -1 0
v -22 -2 0
v -23 -2 0
v -23 -1 0
v -22 -1 0
v -23 -2 0
v -24 -2 0
v -24 -1 0
v -23 -1 0
v -22 -3 0
v -23 -3 0
v -23 -2 0
v -22 -2 0
v -23 -3 0
v -24 -3 0
v -24 -2 0
v -23 -2 0
v -1 -4 0
v -2 -4 0
v -2 -3 0
v -1 -3 0
v -12 -4 0
v -13 -4 0
v -13 -3 0
v -12 -3 0
v -14 -4 0
v -15 -4 0
v -15 -3 0
v -14 -3 0
v -15 -4 0
v -16 -4 0
v -16 -3 0
v -15 -3 0
v -16 -4 0
v -17 -4 0
v -17 -3 0
v -16 -3 0
v -17 -4 0
v -18 -4 0
v -18 -3 0
v -17 -3 0
v -18 -4 0
v -19 -4 0
v -19 -3 0
v -18 -3 0
v -19 -4 0
v -20 -4 0
v -20 -3 0
v -19 -3 0
v -20 -4 0
v -21 -4 0
v -21 -3 0
v -20 -3 0
v -25 -4 0
v -26 -4 0
v -26 -3 0
v -25 -3 0
v -12 -5 0
v -13 -5 0
v -13 -4 0
v -12 -4 0
v -14 -5 0
v -15 -5 0
v -15 -4 0
v -14 -4 0
v -15 -5 0
v -16 -5 0
v -16 -4 0
v -15 -4 0
v -16 -5 0
v -17 -5 0
v -17 -4 0
v -16 -4 0
v -17 -5 0
v -18 -5 0
v -18 -4 0
v -17 -4 0
v -18 -5 0
v -19 -5 0
v -19 -4 0
v -18 -4 0
v -19 -5 0
v -20 -5 0
v -20 -4 0
v -19 -4 0
v -20 -5 0
v -21 -5 0
v -21 -4 0
v -20 -4 0
v -22 -5 0
v -23 -5 0
v -23 -4 0
v -22 -4 0
v -25 -5 0
v -26 -5 0
v -26 -4 0
v -25 -4 0
v -29 -6 0
v -30 -6 0
v -30 -5 0
v -29 -5 0
v -14 -7 0
v -15 -7 0
v -15 -6 0
v -14 -6 0
v -15 -7 0
v -16 -7 0
v -16 -6 0
v -15 -6 0
v -16 -7 0
v -17 -7 0
v -17 -6 0
v -16 -6 0
v -17 -7 0
v -18 -7 0
v -18 -6 0
v -17 -6 0
v -18 -7 0
v -19 -7 0
v -19 -6 0
v -18 -6 0
v -19 -7 0
v -20 -7 0
v -20 -6 0
v -19 -6 0
v -20 -7 0
v -21 -7 0
v -21 -6 0
v -20 -6 0
v -22 -7 0
v -23 -7 0
v -23 -6 0
v -22 -6 0
v -23 -7 0
v -24 -7 0
v -24 -6 0
v -23 -6 0
v -24 -7 0
v -25 -7 0
v -25 -6 0
v -24 -6 0
v -14 -8 0
v -15 -8 0
v -15 -7 0
v -14 -7 0
v -15 -8 0
v -16 -8 0
v -16 -7 0
v -15 -7 0
v -16 -8 0
v -17 -8 0
v -17 -7 0
v -16 -7 0
v -17 -8 0
v -18 -8 0
v -18 -7 0
v -17 -7 0
v -18 -8 0
v -19 -8 0
v -19 -7 0
v -18 -7 0
v -19 -8 0
v -20 -8 0
v -20 -7 0
v -19 -7 0
v -20 -8 0
v -21 -8 0
v -21 -7 0
v -20 -7 0
v 0 -9 0
v -1 -9 0
v -1 -8 0
v 0 -8 0
v -3 -9 0
v -4 -9 0
v -4 -8 0
v -3 -8 0
v -21 -9 0
v -22 -9 0
v -22 -8 0
v -21 -8 0
v -24 -10 0
v -25 -10 0
v -25 -9 0
v -24 -9 0
v -25 -10 0
v -26 -10 0
v -26 -9 0
v -25 -9 0
v -26 -10 0
v -27 -10 0
v -27 -9 0
v -26 -9 0
v -27 -10 0
v -28 -10 0
v -28 -9 0
v -27 -9 0
v -28 -10 0
v -29 -10 0
v -29 -9 0
v -28 -9 0
v -29 -10 0
v -30 -10 0
v -30 -9 0
v -29 -9 0
v -24 -11 0
v -25 -11 0
v -25 -10 0
v -24 -10 0
v -25 -11 0
v -26 -11 0
v -26 -10 0
v -25 -10 0
v -26 -11 0
v -27 -11 0
v -27 -10 0
v -26 -10 0
v -27 -11 0
v -28 -11 0
v -28 -10 0
v -27 -10 0
v -28 -11 0
v -29 -11 0
v -29 -10 0
v -28 -10 0
v -29 -11 0
v -30 -11 0
v -30 -10 0
v -29 -10 0
v -1 -12 0
v -2 -12 0
v -2 -11 0
v -1 -11 0
v -2 -12 0
v -3 -12 0
v -3 -11 0
v -2 -11 0
v -3 -12 0
v -4 -12 0
v -4 -11 0
v -3 -11 0
v -4 -12 0
v -5 -12 0
v -5 -11 0
v -4 -11 0
v -5 -12 0
v -6 -12 0
v -6 -11 0
v -5 -11 0
v -6 -12 0
v -7 -12 0
v -7 -11 0
v -6 -11 0
v -10 -12 0
v -11 -12 0
v -11 -11 0
v -10 -11 0
v -24 -12 0
v -25 -12 0
v -25 -11 0
v -24 -11 0
v -25 -12 0
v -26 -12 0
v -26 -11 0
v -25 -11 0
v -26 -12 0
v -27 -12 0
v -27 -11 0
v -26 -11 0
v -27 -12 0
v -28 -12 0
v -28 -11 0
v -27 -11 0
v -28 -12 0
v -29 -12 0
v -29 -11 0
v -28 -11 0
v -29 -12 0
v -30 -12 0
v -30 -11 0
v -29 -11 0
v -1 -13 0
v -2 -13 0
v -2 -12 0
v -1 -12 0
v -2 -13 0
v -3 -13 0
v -3 -12 0
v -2 -12 0
v -3 -13 0
v -4 -13 0
v -4 -12 0
v -3 -12 0
v -4 -13 0
v -5 -13 0
v -5 -12 0
v -4 -12 0
v -5 -13 0
v -6 -13 0
v -6 -12 0
v -5 -12 0
v -6 -13 0
v -7 -13 0
v -7 -12 0
v -6 -12 0
v -24 -13 0
v -25 -13 0
v -25 -12 0
v -24 -12 0
v -25 -13 0
v -26 -13 0
v -26 -12 0
v -25 -12 0
v -26 -13 0
v -27 -13 0
v -27 -12 0
v -26 -12 0
v -27 -13 0
v -28 -13 0
v -28 -12 0
v -27 -12 0
v -28 -13 0
v -29 -13 0
v -29 -12 0
v -28 -12 0
v -29 -13 0
v -30 -13 0
v -30 -12 0
v -29 -12 0
v -1 -14 0
v -2 -14 0
v -2 -13 0
v -1 -13 0
v -2 -14 0
v -3 -14 0
v -3 -13 0
v -2 -13 0
v -3 -14 0
v -4 -14 0
v -4 -13 0
v -3 -13 0
v -4 -14 0
v -5 -14 0
v -5 -13 0
v -4 -13 0
v -5 -14 0
v -6 -14 0
v -6 -13 0
v -5 -13 0
v -6 -14 0
v -7 -14 0
v -7 -13 0
v -6 -13 0
v -8 -14 0
v -9 -14 0
v -9 -13 0
v -8 -13 0
v -15 -14 0
v -16 -14 0
v -16 -13 0
v -15 -13 0
v -16 -14 0
v -17 -14 0
v -17 -13 0
v -16 -13 0
v -20 -14 0
v -21 -14 0
v -21 -13 0
v -20 -13 0
v -21 -14 0
v -22 -14 0
v -22 -13 0
v -21 -13 0
v -24 -14 0
v -25 -14 0
v -25 -13 0
v -24 -13 0
v -25 -14 0
v -26 -14 0
v -26 -13 0
v -25 -13 0
v -26 -14 0
v -27 -14 0
v -27 -13 0
v -26 -13 0
v -27 -14 0
v -28 -14 0
v -28 -13 0
v -27 -13 0
v -28 -14 0
v -29 -14 0
v -29 -13 0
v -28 -13 0
v -29 -14 0
v -30 -14 0
v -30 -13 0
v -29 -13 0
v -1 -15 0
v -2 -15 0
v -2 -14 0
v -1 -14 0
v -2 -15 0
v -3 -15 0
v -3 -14 0
v -2 -14 0
v -3 -15 0
v -4 -15 0
v -4 -14 0
v -3 -14 0
v -4 -15 0
v -5 -15 0
v -5 -14 0
v -4 -14 0
v -5 -15 0
v -6 -15 0
v -6 -14 0
v -5 -14 0
v -6 -15 0
v -7 -15 0
v -7 -14 0
v -6 -14 0
v -15 -15 0
v -16 -15 0
v -16 -14 0
v -15 -14 0
v -16 -15 0
v -17 -15 0
v -17 -14 0
v -16 -14 0
v -20 -15 0
v -21 -15 0
v -21 -14 0
v -20 -14 0
v -21 -15 0
v -22 -15 0
v -22 -14 0
v -21 -14 0
v -1 -16 0
v -2 -16 0
v -2 -15 0
v -1 -15 0
v -2 -16 0
v -3 -16 0
v -3 -15 0
v -2 -15 0
v -3 -16 0
v -4 -16 0
v -4 -15 0
v -3 -15 0
v -4 -16 0
v -5 -16 0
v -5 -15 0
v -4 -15 0
v -5 -16 0
v -6 -16 0
v -6 -15 0
v -5 -15 0
v -6 -16 0
v -7 -16 0
v -7 -15 0
v -6 -15 0
v -23 -16 0
v -24 -16 0
v -24 -15 0
v -23 -15 0
v -24 -16 0
v -25 -16 0
v -25 -15 0
v -24 -15 0
v -25 -16 0
v -26 -16 0
v -26 -15 0
v -25 -15 0
v -26 -16 0
v -27 -16 0
v -27 -15 0
v -26 -15 0
v -27 -16 0
v -28 -16 0
v -28 -15 0
v -27 -15 0
v -28 -16 0
v -29 -16 0
v -29 -15 0
v -28 -15 0
v -29 -16 0
v -30 -16 0
v -30 -15 0
v -29 -15 0
v -1 -17 0
v -2 -17 0
v -2 -16 0
v -1 -16 0
v -2 -17 0
v -3 -17 0
v -3 -16 0
v -2 -16 0
v -3 -17 0
v -4 -17 0
v -4 -16 0
v -3 -16 0
v -4 -17 0
v -5 -17 0
v -5 -16 0
v -4 -16 0
v -5 -17 0
v -6 -17 0
v -6 -16 0
v -5 -16 0
v -6 -17 0
v -7 -17 0
v -7 -16 0
v -6 -16 0
v -24 -17 0
v -25 -17 0
v -25 -16 0
v -24 -16 0
v -25 -17 0
v -26 -17 0
v -26 -16 0
v -25 -16 0
v -26 -17 0
v -27 -17 0
v -27 -16 0
v -26 -16 0
v -27 -17 0
v -28 -17 0
v -28 -16 0
v -27 -16 0
v -28 -17 0
v -29 -17 0
v -29 -16 0
v -28 -16 0
v -29 -17 0
v -30 -17 0
v -30 -16 0
v -29 -16 0
v -1 -18 0
v -2 -18 0
v -2 -17 0
v -1 -17 0
v -2 -18 0
v -3 -18 0
v -3 -17 0
v -2 -17 0
v -3 -18 0
v -4 -18 0
v -4 -17 0
v -3 -17 0
v -4 -18 0
v -5 -18 0
v -5 -17 0
v -4 -17 0
v -5 -18 0
v -6 -18 0
v -6 -17 0
v -5 -17 0
v -6 -18 0
v -7 -18 0
v -7 -17 0
v -6 -17 0
v -8 -18 0
v -9 -18 0
v -9 -17 0
v -8 -17 0
v -11 -18 0
v -12 -18 0
v -12 -17 0
v -11 -17 0
v -24 -18 0
v -25 -18 0
v -25 -17 0
v -24 -17 0
v -25 -18 0
v -26 -18 0
v -26 -17 0
v -25 -17 0
v -26 -18 0
v -27 -18 0
v -27 -17 0
v -26 -17 0
v -27 -18 0
v -28 -18 0
v -28 -17 0
v -27 -17 0
v -28 -18 0
v -29 -18 0
v -29 -17 0
v -28 -17 0
v -29 -18 0
v -30 -18 0
v -30 -17 0
v -29 -17 0
v -1 -19 0
v -2 -19 0
v -2 -18 0
v -1 -18 0
v -2 -19 0
v -3 -19 0
v -3 -18 0
v -2 -18 0
v -3 -19 0
v -4 -19 0
v -4 -18 0
v -3 -18 0
v -4 -19 0
v -5 -19 0
v -5 -18 0
v -4 -18 0
v -5 -19 0
v -6 -19 0
v -6 -18 0
v -5 -18 0
v -6 -19 0
v -7 -19 0
v -7 -18 0
v -6 -18 0
v -8 -19 0
v -9 -19 0
v -9 -18 0
v -8 -18 0
v -24 -19 0
v -25 -19 0
v -25 -18 0
v -24 -18 0
v -25 -19 0
v -26 -19 0
v -26 -18 0
v -25 -18 0
v -26 -19 0
v -27 -19 0
v -27 -18 0
v -26 -18 0
v -27 -19 0
v -28 -19 0
v -28 -18 0
v -27 -18 0
v -28 -19 0
v -29 -19 0
v -29 -18 0
v -28 -18 0
v -29 -19 0
v -30 -19 0
v -30 -18 0
v -29 -18 0

# Texture cooridinates (Count = 82)
vt 0.175 0.8333333
vt 0.2 0.8333333
vt 0.2 0.8611111
vt 0.175 0.8611111
vt 0.025 0.75
vt 0.05 0.75
vt 0.05 0.7777778
vt 0.025 0.7777778
vt 0.775 0.8888889
vt 0.8 0.8888889
vt 0.8 0.9166667
vt 0.775 0.9166667
vt 0.825 0.8888889
vt 0.825 0.9166667
vt 0.775 0.8611111
vt 0.8 0.8611111
vt 0.825 0.8611111
vt 0 0.75
vt 0 0.7777778
vt 0.675 0.4166667
vt 0.7 0.4166667
vt 0.7 0.4444444
vt 0.675 0.4444444
vt 0 0.02777779
vt 0.025 0.02777779
vt 0.025 0.05555558
vt 0 0.05555558
vt 0.8 0.9444444
vt 0.825 0.9444444
vt 0.825 0.9722222
vt 0.8 0.9722222
vt 0.675 0.3888889
vt 0.7 0.3888889
vt 0.05 0.9722222
vt 0.075 0.9722222
vt 0.075 1
vt 0.05 1
vt 0.85 0.9166667
vt 0.85 0.9444444
vt 0.075 0.8333333
vt 0.1 0.8333333
vt 0.1 0.8611111
vt 0.075 0.8611111
vt 0.125 0.8333333
vt 0.125 0.8611111
vt 0.15 0.8333333
vt 0.15 0.8611111
vt 0.075 0.6666666
vt 0.1 0.6666666
vt 0.1 0.6944444
vt 0.075 0.6944444
vt 0.875 0.9166667
vt 0.875 0.9444444
vt 0 0
vt 0.025 0
vt 0.05 0.02777779
vt 0.05 0.05555558
vt 0.125 0.5277778
vt 0.15 0.5277778
vt 0.15 0.5555556
vt 0.125 0.5555556
vt 0.175 0.5277778
vt 0.175 0.5555556
vt 0.1 0.9444444
vt 0.125 0.9444444
vt 0.125 0.9722222
vt 0.1 0.9722222
vt 0.15 0.9444444
vt 0.15 0.9722222
vt 0.125 0.5
vt 0.15 0.5
vt 0.175 0.5
vt 0.1 0.9166667
vt 0.125 0.9166667
vt 0.15 0.9166667
vt 0.65 0.4166667
vt 0.65 0.4444444
vt 0.275 0.4722222
vt 0.3 0.4722222
vt 0.3 0.5
vt 0.275 0.5
vt 0.65 0.3888889

# Normal
vn 0 0 -1

# Mesh description
g mapa4_v1_mesh_0005

# Faces
f 1/1/1 2/2/1 3/3/1 4/4/1
f 5/5/1 6/6/1 7/7/1 8/8/1
f 9/9/1 10/10/1 11/11/1 12/12/1
f 13/10/1 14/13/1 15/14/1 16/11/1
f 17/15/1 18/16/1 19/10/1 20/9/1
f 21/16/1 22/17/1 23/13/1 24/10/1
f 25/18/1 26/5/1 27/8/1 28/19/1
f 29/20/1 30/21/1 31/22/1 32/23/1
f 33/24/1 34/25/1 35/26/1 36/27/1
f 37/24/1 38/25/1 39/26/1 40/27/1
f 41/24/1 42/25/1 43/26/1 44/27/1
f 45/24/1 46/25/1 47/26/1 48/27/1
f 49/24/1 50/25/1 51/26/1 52/27/1
f 53/24/1 54/25/1 55/26/1 56/27/1
f 57/24/1 58/25/1 59/26/1 60/27/1
f 61/28/1 62/29/1 63/30/1 64/31/1
f 65/32/1 66/33/1 67/21/1 68/20/1
f 69/24/1 70/25/1 71/26/1 72/27/1
f 73/24/1 74/25/1 75/26/1 76/27/1
f 77/24/1 78/25/1 79/26/1 80/27/1
f 81/24/1 82/25/1 83/26/1 84/27/1
f 85/24/1 86/25/1 87/26/1 88/27/1
f 89/24/1 90/25/1 91/26/1 92/27/1
f 93/24/1 94/25/1 95/26/1 96/27/1
f 97/34/1 98/35/1 99/36/1 100/37/1
f 101/11/1 102/14/1 103/29/1 104/28/1
f 105/14/1 106/38/1 107/39/1 108/29/1
f 109/24/1 110/25/1 111/26/1 112/27/1
f 113/24/1 114/25/1 115/26/1 116/27/1
f 117/24/1 118/25/1 119/26/1 120/27/1
f 121/24/1 122/25/1 123/26/1 124/27/1
f 125/24/1 126/25/1 127/26/1 128/27/1
f 129/24/1 130/25/1 131/26/1 132/27/1
f 133/24/1 134/25/1 135/26/1 136/27/1
f 137/40/1 138/41/1 139/42/1 140/43/1
f 141/41/1 142/44/1 143/45/1 144/42/1
f 145/44/1 146/46/1 147/47/1 148/45/1
f 149/24/1 150/25/1 151/26/1 152/27/1
f 153/24/1 154/25/1 155/26/1 156/27/1
f 157/24/1 158/25/1 159/26/1 160/27/1
f 161/24/1 162/25/1 163/26/1 164/27/1
f 165/24/1 166/25/1 167/26/1 168/27/1
f 169/24/1 170/25/1 171/26/1 172/27/1
f 173/24/1 174/25/1 175/26/1 176/27/1
f 177/1/1 178/2/1 179/3/1 180/4/1
f 181/48/1 182/49/1 183/50/1 184/51/1
f 185/38/1 186/52/1 187/53/1 188/39/1
f 189/54/1 190/55/1 191/25/1 192/24/1
f 193/54/1 194/55/1 195/25/1 196/24/1
f 197/54/1 198/55/1 199/25/1 200/24/1
f 201/54/1 202/55/1 203/25/1 204/24/1
f 205/54/1 206/55/1 207/25/1 208/24/1
f 209/54/1 210/55/1 211/25/1 212/24/1
f 213/54/1 214/55/1 215/25/1 216/24/1
f 217/54/1 218/55/1 219/25/1 220/24/1
f 221/54/1 222/55/1 223/25/1 224/24/1
f 225/54/1 226/55/1 227/25/1 228/24/1
f 229/54/1 230/55/1 231/25/1 232/24/1
f 233/54/1 234/55/1 235/25/1 236/24/1
f 237/25/1 238/56/1 239/57/1 240/26/1
f 241/25/1 242/56/1 243/57/1 244/26/1
f 245/25/1 246/56/1 247/57/1 248/26/1
f 249/25/1 250/56/1 251/57/1 252/26/1
f 253/25/1 254/56/1 255/57/1 256/26/1
f 257/25/1 258/56/1 259/57/1 260/26/1
f 261/1/1 262/2/1 263/3/1 264/4/1
f 265/54/1 266/55/1 267/25/1 268/24/1
f 269/54/1 270/55/1 271/25/1 272/24/1
f 273/54/1 274/55/1 275/25/1 276/24/1
f 277/54/1 278/55/1 279/25/1 280/24/1
f 281/54/1 282/55/1 283/25/1 284/24/1
f 285/54/1 286/55/1 287/25/1 288/24/1
f 289/25/1 290/56/1 291/57/1 292/26/1
f 293/25/1 294/56/1 295/57/1 296/26/1
f 297/25/1 298/56/1 299/57/1 300/26/1
f 301/25/1 302/56/1 303/57/1 304/26/1
f 305/25/1 306/56/1 307/57/1 308/26/1
f 309/25/1 310/56/1 311/57/1 312/26/1
f 313/54/1 314/55/1 315/25/1 316/24/1
f 317/54/1 318/55/1 319/25/1 320/24/1
f 321/54/1 322/55/1 323/25/1 324/24/1
f 325/54/1 326/55/1 327/25/1 328/24/1
f 329/54/1 330/55/1 331/25/1 332/24/1
f 333/54/1 334/55/1 335/25/1 336/24/1
f 337/25/1 338/56/1 339/57/1 340/26/1
f 341/25/1 342/56/1 343/57/1 344/26/1
f 345/25/1 346/56/1 347/57/1 348/26/1
f 349/25/1 350/56/1 351/57/1 352/26/1
f 353/25/1 354/56/1 355/57/1 356/26/1
f 357/25/1 358/56/1 359/57/1 360/26/1
f 361/38/1 362/52/1 363/53/1 364/39/1
f 365/58/1 366/59/1 367/60/1 368/61/1
f 369/59/1 370/62/1 371/63/1 372/60/1
f 373/64/1 374/65/1 375/66/1 376/67/1
f 377/65/1 378/68/1 379/69/1 380/66/1
f 381/54/1 382/55/1 383/25/1 384/24/1
f 385/54/1 386/55/1 387/25/1 388/24/1
f 389/54/1 390/55/1 391/25/1 392/24/1
f 393/54/1 394/55/1 395/25/1 396/24/1
f 397/54/1 398/55/1 399/25/1 400/24/1
f 401/54/1 402/55/1 403/25/1 404/24/1
f 405/25/1 406/56/1 407/57/1 408/26/1
f 409/25/1 410/56/1 411/57/1 412/26/1
f 413/25/1 414/56/1 415/57/1 416/26/1
f 417/25/1 418/56/1 419/57/1 420/26/1
f 421/25/1 422/56/1 423/57/1 424/26/1
f 425/25/1 426/56/1 427/57/1 428/26/1
f 429/70/1 430/71/1 431/59/1 432/58/1
f 433/71/1 434/72/1 435/62/1 436/59/1
f 437/73/1 438/74/1 439/65/1 440/64/1
f 441/74/1 442/75/1 443/68/1 444/65/1
f 445/25/1 446/56/1 447/57/1 448/26/1
f 449/25/1 450/56/1 451/57/1 452/26/1
f 453/25/1 454/56/1 455/57/1 456/26/1
f 457/25/1 458/56/1 459/57/1 460/26/1
f 461/25/1 462/56/1 463/57/1 464/26/1
f 465/25/1 466/56/1 467/57/1 468/26/1
f 469/38/1 470/52/1 471/53/1 472/39/1
f 473/24/1 474/25/1 475/26/1 476/27/1
f 477/24/1 478/25/1 479/26/1 480/27/1
f 481/24/1 482/25/1 483/26/1 484/27/1
f 485/24/1 486/25/1 487/26/1 488/27/1
f 489/24/1 490/25/1 491/26/1 492/27/1
f 493/24/1 494/25/1 495/26/1 496/27/1
f 497/25/1 498/56/1 499/57/1 500/26/1
f 501/25/1 502/56/1 503/57/1 504/26/1
f 505/25/1 506/56/1 507/57/1 508/26/1
f 509/25/1 510/56/1 511/57/1 512/26/1
f 513/25/1 514/56/1 515/57/1 516/26/1
f 517/25/1 518/56/1 519/57/1 520/26/1
f 521/24/1 522/25/1 523/26/1 524/27/1
f 525/24/1 526/25/1 527/26/1 528/27/1
f 529/24/1 530/25/1 531/26/1 532/27/1
f 533/24/1 534/25/1 535/26/1 536/27/1
f 537/24/1 538/25/1 539/26/1 540/27/1
f 541/24/1 542/25/1 543/26/1 544/27/1
f 545/25/1 546/56/1 547/57/1 548/26/1
f 549/25/1 550/56/1 551/57/1 552/26/1
f 553/25/1 554/56/1 555/57/1 556/26/1
f 557/25/1 558/56/1 559/57/1 560/26/1
f 561/25/1 562/56/1 563/57/1 564/26/1
f 565/25/1 566/56/1 567/57/1 568/26/1
f 569/76/1 570/20/1 571/23/1 572/77/1
f 573/78/1 574/79/1 575/80/1 576/81/1
f 577/24/1 578/25/1 579/26/1 580/27/1
f 581/24/1 582/25/1 583/26/1 584/27/1
f 585/24/1 586/25/1 587/26/1 588/27/1
f 589/24/1 590/25/1 591/26/1 592/27/1
f 593/24/1 594/25/1 595/26/1 596/27/1
f 597/24/1 598/25/1 599/26/1 600/27/1
f 601/25/1 602/56/1 603/57/1 604/26/1
f 605/25/1 606/56/1 607/57/1 608/26/1
f 609/25/1 610/56/1 611/57/1 612/26/1
f 613/25/1 614/56/1 615/57/1 616/26/1
f 617/25/1 618/56/1 619/57/1 620/26/1
f 621/25/1 622/56/1 623/57/1 624/26/1
f 625/82/1 626/32/1 627/20/1 628/76/1
f 629/24/1 630/25/1 631/26/1 632/27/1
f 633/24/1 634/25/1 635/26/1 636/27/1
f 637/24/1 638/25/1 639/26/1 640/27/1
f 641/24/1 642/25/1 643/26/1 644/27/1
f 645/24/1 646/25/1 647/26/1 648/27/1
f 649/24/1 650/25/1 651/26/1 652/27/1

