# Tiled2Unity generated file. Do not modify by hand.
# Wavefront file for 'mapa3_v1_huertos_mesh_0003.obj'

# Vertices (Count = 828)
v -25 -1 0
v -26 -1 0
v -26 0 0
v -25 0 0
v -26 -1 0
v -27 -1 0
v -27 0 0
v -26 0 0
v -27 -1 0
v -28 -1 0
v -28 0 0
v -27 0 0
v -28 -1 0
v -29 -1 0
v -29 0 0
v -28 0 0
v -29 -1 0
v -30 -1 0
v -30 0 0
v -29 0 0
v -25 -2 0
v -26 -2 0
v -26 -1 0
v -25 -1 0
v -26 -2 0
v -27 -2 0
v -27 -1 0
v -26 -1 0
v -27 -2 0
v -28 -2 0
v -28 -1 0
v -27 -1 0
v -28 -2 0
v -29 -2 0
v -29 -1 0
v -28 -1 0
v -29 -2 0
v -30 -2 0
v -30 -1 0
v -29 -1 0
v -25 -3 0
v -26 -3 0
v -26 -2 0
v -25 -2 0
v -26 -3 0
v -27 -3 0
v -27 -2 0
v -26 -2 0
v -27 -3 0
v -28 -3 0
v -28 -2 0
v -27 -2 0
v -28 -3 0
v -29 -3 0
v -29 -2 0
v -28 -2 0
v -29 -3 0
v -30 -3 0
v -30 -2 0
v -29 -2 0
v -15 -4 0
v -16 -4 0
v -16 -3 0
v -15 -3 0
v -16 -4 0
v -17 -4 0
v -17 -3 0
v -16 -3 0
v -17 -4 0
v -18 -4 0
v -18 -3 0
v -17 -3 0
v -18 -4 0
v -19 -4 0
v -19 -3 0
v -18 -3 0
v -19 -4 0
v -20 -4 0
v -20 -3 0
v -19 -3 0
v -25 -4 0
v -26 -4 0
v -26 -3 0
v -25 -3 0
v -26 -4 0
v -27 -4 0
v -27 -3 0
v -26 -3 0
v -27 -4 0
v -28 -4 0
v -28 -3 0
v -27 -3 0
v -28 -4 0
v -29 -4 0
v -29 -3 0
v -28 -3 0
v -29 -4 0
v -30 -4 0
v -30 -3 0
v -29 -3 0
v -5 -5 0
v -6 -5 0
v -6 -4 0
v -5 -4 0
v -6 -5 0
v -7 -5 0
v -7 -4 0
v -6 -4 0
v -7 -5 0
v -8 -5 0
v -8 -4 0
v -7 -4 0
v -8 -5 0
v -9 -5 0
v -9 -4 0
v -8 -4 0
v -9 -5 0
v -10 -5 0
v -10 -4 0
v -9 -4 0
v -10 -5 0
v -11 -5 0
v -11 -4 0
v -10 -4 0
v -11 -5 0
v -12 -5 0
v -12 -4 0
v -11 -4 0
v -12 -5 0
v -13 -5 0
v -13 -4 0
v -12 -4 0
v -13 -5 0
v -14 -5 0
v -14 -4 0
v -13 -4 0
v -15 -5 0
v -16 -5 0
v -16 -4 0
v -15 -4 0
v -16 -5 0
v -17 -5 0
v -17 -4 0
v -16 -4 0
v -17 -5 0
v -18 -5 0
v -18 -4 0
v -17 -4 0
v -18 -5 0
v -19 -5 0
v -19 -4 0
v -18 -4 0
v -19 -5 0
v -20 -5 0
v -20 -4 0
v -19 -4 0
v -25 -5 0
v -26 -5 0
v -26 -4 0
v -25 -4 0
v -26 -5 0
v -27 -5 0
v -27 -4 0
v -26 -4 0
v -27 -5 0
v -28 -5 0
v -28 -4 0
v -27 -4 0
v -28 -5 0
v -29 -5 0
v -29 -4 0
v -28 -4 0
v -29 -5 0
v -30 -5 0
v -30 -4 0
v -29 -4 0
v -5 -6 0
v -6 -6 0
v -6 -5 0
v -5 -5 0
v -6 -6 0
v -7 -6 0
v -7 -5 0
v -6 -5 0
v -7 -6 0
v -8 -6 0
v -8 -5 0
v -7 -5 0
v -8 -6 0
v -9 -6 0
v -9 -5 0
v -8 -5 0
v -9 -6 0
v -10 -6 0
v -10 -5 0
v -9 -5 0
v -10 -6 0
v -11 -6 0
v -11 -5 0
v -10 -5 0
v -11 -6 0
v -12 -6 0
v -12 -5 0
v -11 -5 0
v -12 -6 0
v -13 -6 0
v -13 -5 0
v -12 -5 0
v -13 -6 0
v -14 -6 0
v -14 -5 0
v -13 -5 0
v -16 -6 0
v -17 -6 0
v -17 -5 0
v -16 -5 0
v -17 -6 0
v -18 -6 0
v -18 -5 0
v -17 -5 0
v -18 -6 0
v -19 -6 0
v -19 -5 0
v -18 -5 0
v -19 -6 0
v -20 -6 0
v -20 -5 0
v -19 -5 0
v -5 -7 0
v -6 -7 0
v -6 -6 0
v -5 -6 0
v -6 -7 0
v -7 -7 0
v -7 -6 0
v -6 -6 0
v -7 -7 0
v -8 -7 0
v -8 -6 0
v -7 -6 0
v -8 -7 0
v -9 -7 0
v -9 -6 0
v -8 -6 0
v -9 -7 0
v -10 -7 0
v -10 -6 0
v -9 -6 0
v -10 -7 0
v -11 -7 0
v -11 -6 0
v -10 -6 0
v -11 -7 0
v -12 -7 0
v -12 -6 0
v -11 -6 0
v -12 -7 0
v -13 -7 0
v -13 -6 0
v -12 -6 0
v -13 -7 0
v -14 -7 0
v -14 -6 0
v -13 -6 0
v -15 -7 0
v -16 -7 0
v -16 -6 0
v -15 -6 0
v -16 -7 0
v -17 -7 0
v -17 -6 0
v -16 -6 0
v -17 -7 0
v -18 -7 0
v -18 -6 0
v -17 -6 0
v -18 -7 0
v -19 -7 0
v -19 -6 0
v -18 -6 0
v -19 -7 0
v -20 -7 0
v -20 -6 0
v -19 -6 0
v -11 -8 0
v -12 -8 0
v -12 -7 0
v -11 -7 0
v -12 -8 0
v -13 -8 0
v -13 -7 0
v -12 -7 0
v -13 -8 0
v -14 -8 0
v -14 -7 0
v -13 -7 0
v -15 -8 0
v -16 -8 0
v -16 -7 0
v -15 -7 0
v -16 -8 0
v -17 -8 0
v -17 -7 0
v -16 -7 0
v -17 -8 0
v -18 -8 0
v -18 -7 0
v -17 -7 0
v -18 -8 0
v -19 -8 0
v -19 -7 0
v -18 -7 0
v -19 -8 0
v -20 -8 0
v -20 -7 0
v -19 -7 0
v -11 -9 0
v -12 -9 0
v -12 -8 0
v -11 -8 0
v -12 -9 0
v -13 -9 0
v -13 -8 0
v -12 -8 0
v -13 -9 0
v -14 -9 0
v -14 -8 0
v -13 -8 0
v -16 -9 0
v -17 -9 0
v -17 -8 0
v -16 -8 0
v -17 -9 0
v -18 -9 0
v -18 -8 0
v -17 -8 0
v -18 -9 0
v -19 -9 0
v -19 -8 0
v -18 -8 0
v -11 -10 0
v -12 -10 0
v -12 -9 0
v -11 -9 0
v -12 -10 0
v -13 -10 0
v -13 -9 0
v -12 -9 0
v -13 -10 0
v -14 -10 0
v -14 -9 0
v -13 -9 0
v -14 -10 0
v -15 -10 0
v -15 -9 0
v -14 -9 0
v -15 -10 0
v -16 -10 0
v -16 -9 0
v -15 -9 0
v -16 -10 0
v -17 -10 0
v -17 -9 0
v -16 -9 0
v -17 -10 0
v -18 -10 0
v -18 -9 0
v -17 -9 0
v -18 -10 0
v -19 -10 0
v -19 -9 0
v -18 -9 0
v -24 -10 0
v -25 -10 0
v -25 -9 0
v -24 -9 0
v -25 -10 0
v -26 -10 0
v -26 -9 0
v -25 -9 0
v -26 -10 0
v -27 -10 0
v -27 -9 0
v -26 -9 0
v -27 -10 0
v -28 -10 0
v -28 -9 0
v -27 -9 0
v -28 -10 0
v -29 -10 0
v -29 -9 0
v -28 -9 0
v -29 -10 0
v -30 -10 0
v -30 -9 0
v -29 -9 0
v -11 -11 0
v -12 -11 0
v -12 -10 0
v -11 -10 0
v -12 -11 0
v -13 -11 0
v -13 -10 0
v -12 -10 0
v -13 -11 0
v -14 -11 0
v -14 -10 0
v -13 -10 0
v -14 -11 0
v -15 -11 0
v -15 -10 0
v -14 -10 0
v -15 -11 0
v -16 -11 0
v -16 -10 0
v -15 -10 0
v -16 -11 0
v -17 -11 0
v -17 -10 0
v -16 -10 0
v -17 -11 0
v -18 -11 0
v -18 -10 0
v -17 -10 0
v -18 -11 0
v -19 -11 0
v -19 -10 0
v -18 -10 0
v -24 -11 0
v -25 -11 0
v -25 -10 0
v -24 -10 0
v -25 -11 0
v -26 -11 0
v -26 -10 0
v -25 -10 0
v -26 -11 0
v -27 -11 0
v -27 -10 0
v -26 -10 0
v -27 -11 0
v -28 -11 0
v -28 -10 0
v -27 -10 0
v -28 -11 0
v -29 -11 0
v -29 -10 0
v -28 -10 0
v -29 -11 0
v -30 -11 0
v -30 -10 0
v -29 -10 0
v -2 -12 0
v -3 -12 0
v -3 -11 0
v -2 -11 0
v -3 -12 0
v -4 -12 0
v -4 -11 0
v -3 -11 0
v -4 -12 0
v -5 -12 0
v -5 -11 0
v -4 -11 0
v -5 -12 0
v -6 -12 0
v -6 -11 0
v -5 -11 0
v -6 -12 0
v -7 -12 0
v -7 -11 0
v -6 -11 0
v -11 -12 0
v -12 -12 0
v -12 -11 0
v -11 -11 0
v -12 -12 0
v -13 -12 0
v -13 -11 0
v -12 -11 0
v -13 -12 0
v -14 -12 0
v -14 -11 0
v -13 -11 0
v -14 -12 0
v -15 -12 0
v -15 -11 0
v -14 -11 0
v -15 -12 0
v -16 -12 0
v -16 -11 0
v -15 -11 0
v -16 -12 0
v -17 -12 0
v -17 -11 0
v -16 -11 0
v -17 -12 0
v -18 -12 0
v -18 -11 0
v -17 -11 0
v -18 -12 0
v -19 -12 0
v -19 -11 0
v -18 -11 0
v -24 -12 0
v -25 -12 0
v -25 -11 0
v -24 -11 0
v -25 -12 0
v -26 -12 0
v -26 -11 0
v -25 -11 0
v -26 -12 0
v -27 -12 0
v -27 -11 0
v -26 -11 0
v -27 -12 0
v -28 -12 0
v -28 -11 0
v -27 -11 0
v -28 -12 0
v -29 -12 0
v -29 -11 0
v -28 -11 0
v -29 -12 0
v -30 -12 0
v -30 -11 0
v -29 -11 0
v -2 -13 0
v -3 -13 0
v -3 -12 0
v -2 -12 0
v -3 -13 0
v -4 -13 0
v -4 -12 0
v -3 -12 0
v -4 -13 0
v -5 -13 0
v -5 -12 0
v -4 -12 0
v -5 -13 0
v -6 -13 0
v -6 -12 0
v -5 -12 0
v -6 -13 0
v -7 -13 0
v -7 -12 0
v -6 -12 0
v -11 -13 0
v -12 -13 0
v -12 -12 0
v -11 -12 0
v -12 -13 0
v -13 -13 0
v -13 -12 0
v -12 -12 0
v -13 -13 0
v -14 -13 0
v -14 -12 0
v -13 -12 0
v -24 -13 0
v -25 -13 0
v -25 -12 0
v -24 -12 0
v -25 -13 0
v -26 -13 0
v -26 -12 0
v -25 -12 0
v -26 -13 0
v -27 -13 0
v -27 -12 0
v -26 -12 0
v -27 -13 0
v -28 -13 0
v -28 -12 0
v -27 -12 0
v -28 -13 0
v -29 -13 0
v -29 -12 0
v -28 -12 0
v -29 -13 0
v -30 -13 0
v -30 -12 0
v -29 -12 0
v -2 -14 0
v -3 -14 0
v -3 -13 0
v -2 -13 0
v -3 -14 0
v -4 -14 0
v -4 -13 0
v -3 -13 0
v -4 -14 0
v -5 -14 0
v -5 -13 0
v -4 -13 0
v -5 -14 0
v -6 -14 0
v -6 -13 0
v -5 -13 0
v -6 -14 0
v -7 -14 0
v -7 -13 0
v -6 -13 0
v -11 -14 0
v -12 -14 0
v -12 -13 0
v -11 -13 0
v -12 -14 0
v -13 -14 0
v -13 -13 0
v -12 -13 0
v -13 -14 0
v -14 -14 0
v -14 -13 0
v -13 -13 0
v -24 -14 0
v -25 -14 0
v -25 -13 0
v -24 -13 0
v -25 -14 0
v -26 -14 0
v -26 -13 0
v -25 -13 0
v -26 -14 0
v -27 -14 0
v -27 -13 0
v -26 -13 0
v -27 -14 0
v -28 -14 0
v -28 -13 0
v -27 -13 0
v -28 -14 0
v -29 -14 0
v -29 -13 0
v -28 -13 0
v -29 -14 0
v -30 -14 0
v -30 -13 0
v -29 -13 0
v -2 -15 0
v -3 -15 0
v -3 -14 0
v -2 -14 0
v -3 -15 0
v -4 -15 0
v -4 -14 0
v -3 -14 0
v -4 -15 0
v -5 -15 0
v -5 -14 0
v -4 -14 0
v -5 -15 0
v -6 -15 0
v -6 -14 0
v -5 -14 0
v -6 -15 0
v -7 -15 0
v -7 -14 0
v -6 -14 0
v -7 -15 0
v -8 -15 0
v -8 -14 0
v -7 -14 0
v -8 -15 0
v -9 -15 0
v -9 -14 0
v -8 -14 0
v -9 -15 0
v -10 -15 0
v -10 -14 0
v -9 -14 0
v -10 -15 0
v -11 -15 0
v -11 -14 0
v -10 -14 0
v -11 -15 0
v -12 -15 0
v -12 -14 0
v -11 -14 0
v -12 -15 0
v -13 -15 0
v -13 -14 0
v -12 -14 0
v -13 -15 0
v -14 -15 0
v -14 -14 0
v -13 -14 0
v -24 -15 0
v -25 -15 0
v -25 -14 0
v -24 -14 0
v -25 -15 0
v -26 -15 0
v -26 -14 0
v -25 -14 0
v -26 -15 0
v -27 -15 0
v -27 -14 0
v -26 -14 0
v -27 -15 0
v -28 -15 0
v -28 -14 0
v -27 -14 0
v -28 -15 0
v -29 -15 0
v -29 -14 0
v -28 -14 0
v -29 -15 0
v -30 -15 0
v -30 -14 0
v -29 -14 0
v -2 -16 0
v -3 -16 0
v -3 -15 0
v -2 -15 0
v -3 -16 0
v -4 -16 0
v -4 -15 0
v -3 -15 0
v -4 -16 0
v -5 -16 0
v -5 -15 0
v -4 -15 0
v -5 -16 0
v -6 -16 0
v -6 -15 0
v -5 -15 0
v -6 -16 0
v -7 -16 0
v -7 -15 0
v -6 -15 0
v -7 -16 0
v -8 -16 0
v -8 -15 0
v -7 -15 0
v -8 -16 0
v -9 -16 0
v -9 -15 0
v -8 -15 0
v -9 -16 0
v -10 -16 0
v -10 -15 0
v -9 -15 0
v -10 -16 0
v -11 -16 0
v -11 -15 0
v -10 -15 0
v -11 -16 0
v -12 -16 0
v -12 -15 0
v -11 -15 0
v -12 -16 0
v -13 -16 0
v -13 -15 0
v -12 -15 0
v -13 -16 0
v -14 -16 0
v -14 -15 0
v -13 -15 0
v -2 -17 0
v -3 -17 0
v -3 -16 0
v -2 -16 0
v -3 -17 0
v -4 -17 0
v -4 -16 0
v -3 -16 0
v -4 -17 0
v -5 -17 0
v -5 -16 0
v -4 -16 0
v -5 -17 0
v -6 -17 0
v -6 -16 0
v -5 -16 0
v -6 -17 0
v -7 -17 0
v -7 -16 0
v -6 -16 0
v -7 -17 0
v -8 -17 0
v -8 -16 0
v -7 -16 0
v -8 -17 0
v -9 -17 0
v -9 -16 0
v -8 -16 0
v -9 -17 0
v -10 -17 0
v -10 -16 0
v -9 -16 0
v -10 -17 0
v -11 -17 0
v -11 -16 0
v -10 -16 0
v -11 -17 0
v -12 -17 0
v -12 -16 0
v -11 -16 0
v -12 -17 0
v -13 -17 0
v -13 -16 0
v -12 -16 0
v -13 -17 0
v -14 -17 0
v -14 -16 0
v -13 -16 0
v -2 -18 0
v -3 -18 0
v -3 -17 0
v -2 -17 0
v -3 -18 0
v -4 -18 0
v -4 -17 0
v -3 -17 0
v -4 -18 0
v -5 -18 0
v -5 -17 0
v -4 -17 0
v -5 -18 0
v -6 -18 0
v -6 -17 0
v -5 -17 0
v -6 -18 0
v -7 -18 0
v -7 -17 0
v -6 -17 0

# Texture cooridinates (Count = 62)
vt 0.15 0.9722222
vt 0.175 0.9722222
vt 0.175 1
vt 0.15 1
vt 0.2 0.9722222
vt 0.2 1
vt 0.225 0.9722222
vt 0.225 1
vt 0.25 0.9722222
vt 0.25 1
vt 0.275 0.9722222
vt 0.275 1
vt 0.15 0.9444444
vt 0.175 0.9444444
vt 0.2 0.9444444
vt 0.225 0.9444444
vt 0.25 0.9444444
vt 0.275 0.9444444
vt 0.15 0.9166667
vt 0.175 0.9166667
vt 0.2 0.9166667
vt 0.225 0.9166667
vt 0.25 0.9166667
vt 0.275 0.9166667
vt 0.05 0
vt 0.05 0.02777779
vt 0.025 0.02777779
vt 0.025 0
vt 0.15 0.8888889
vt 0.175 0.8888889
vt 0.2 0.8888889
vt 0.225 0.8888889
vt 0.25 0.8888889
vt 0.275 0.8888889
vt 0.275 0.5
vt 0.3 0.5
vt 0.3 0.5277778
vt 0.275 0.5277778
vt 0.325 0.5
vt 0.325 0.5277778
vt 0.35 0.5
vt 0.35 0.5277778
vt 0.15 0.8611111
vt 0.175 0.8611111
vt 0.2 0.8611111
vt 0.225 0.8611111
vt 0.25 0.8611111
vt 0.275 0.8611111
vt 0.275 0.4722222
vt 0.3 0.4722222
vt 0.325 0.4722222
vt 0.35 0.4722222
vt 0.275 0.4444444
vt 0.3 0.4444444
vt 0.325 0.4444444
vt 0 0
vt 0 0.02777779
vt 0.35 0.4444444
vt 0.05 0.08333331
vt 0.075 0.08333331
vt 0.075 0.1111111
vt 0.05 0.1111111

# Normal
vn 0 0 -1

# Mesh description
g mapa3_v1_huertos_mesh_0003

# Faces
f 1/1/1 2/2/1 3/3/1 4/4/1
f 5/2/1 6/5/1 7/6/1 8/3/1
f 9/5/1 10/7/1 11/8/1 12/6/1
f 13/7/1 14/9/1 15/10/1 16/8/1
f 17/9/1 18/11/1 19/12/1 20/10/1
f 21/13/1 22/14/1 23/2/1 24/1/1
f 25/14/1 26/15/1 27/5/1 28/2/1
f 29/15/1 30/16/1 31/7/1 32/5/1
f 33/16/1 34/17/1 35/9/1 36/7/1
f 37/17/1 38/18/1 39/11/1 40/9/1
f 41/19/1 42/20/1 43/14/1 44/13/1
f 45/20/1 46/21/1 47/15/1 48/14/1
f 49/21/1 50/22/1 51/16/1 52/15/1
f 53/22/1 54/23/1 55/17/1 56/16/1
f 57/23/1 58/24/1 59/18/1 60/17/1
f 61/25/1 62/26/1 63/27/1 64/28/1
f 65/25/1 66/26/1 67/27/1 68/28/1
f 69/25/1 70/26/1 71/27/1 72/28/1
f 73/25/1 74/26/1 75/27/1 76/28/1
f 77/25/1 78/26/1 79/27/1 80/28/1
f 81/29/1 82/30/1 83/20/1 84/19/1
f 85/30/1 86/31/1 87/21/1 88/20/1
f 89/31/1 90/32/1 91/22/1 92/21/1
f 93/32/1 94/33/1 95/23/1 96/22/1
f 97/33/1 98/34/1 99/24/1 100/23/1
f 101/35/1 102/36/1 103/37/1 104/38/1
f 105/36/1 106/39/1 107/40/1 108/37/1
f 109/36/1 110/39/1 111/40/1 112/37/1
f 113/36/1 114/39/1 115/40/1 116/37/1
f 117/36/1 118/39/1 119/40/1 120/37/1
f 121/36/1 122/39/1 123/40/1 124/37/1
f 125/36/1 126/39/1 127/40/1 128/37/1
f 129/36/1 130/39/1 131/40/1 132/37/1
f 133/39/1 134/41/1 135/42/1 136/40/1
f 137/25/1 138/26/1 139/27/1 140/28/1
f 141/25/1 142/26/1 143/27/1 144/28/1
f 145/25/1 146/26/1 147/27/1 148/28/1
f 149/25/1 150/26/1 151/27/1 152/28/1
f 153/25/1 154/26/1 155/27/1 156/28/1
f 157/43/1 158/44/1 159/30/1 160/29/1
f 161/44/1 162/45/1 163/31/1 164/30/1
f 165/45/1 166/46/1 167/32/1 168/31/1
f 169/46/1 170/47/1 171/33/1 172/32/1
f 173/47/1 174/48/1 175/34/1 176/33/1
f 177/49/1 178/50/1 179/36/1 180/35/1
f 181/50/1 182/51/1 183/39/1 184/36/1
f 185/50/1 186/51/1 187/39/1 188/36/1
f 189/50/1 190/51/1 191/39/1 192/36/1
f 193/50/1 194/51/1 195/39/1 196/36/1
f 197/50/1 198/51/1 199/39/1 200/36/1
f 201/50/1 202/51/1 203/39/1 204/36/1
f 205/50/1 206/51/1 207/39/1 208/36/1
f 209/51/1 210/52/1 211/41/1 212/39/1
f 213/25/1 214/26/1 215/27/1 216/28/1
f 217/25/1 218/26/1 219/27/1 220/28/1
f 221/25/1 222/26/1 223/27/1 224/28/1
f 225/25/1 226/26/1 227/27/1 228/28/1
f 229/53/1 230/54/1 231/50/1 232/49/1
f 233/54/1 234/55/1 235/51/1 236/50/1
f 237/54/1 238/55/1 239/51/1 240/50/1
f 241/54/1 242/55/1 243/51/1 244/50/1
f 245/54/1 246/55/1 247/51/1 248/50/1
f 249/54/1 250/55/1 251/51/1 252/50/1
f 253/54/1 254/55/1 255/51/1 256/50/1
f 257/50/1 258/51/1 259/39/1 260/36/1
f 261/51/1 262/52/1 263/41/1 264/39/1
f 265/25/1 266/26/1 267/27/1 268/28/1
f 269/25/1 270/26/1 271/27/1 272/28/1
f 273/25/1 274/26/1 275/27/1 276/28/1
f 277/25/1 278/26/1 279/27/1 280/28/1
f 281/25/1 282/26/1 283/27/1 284/28/1
f 285/49/1 286/50/1 287/36/1 288/35/1
f 289/50/1 290/51/1 291/39/1 292/36/1
f 293/51/1 294/52/1 295/41/1 296/39/1
f 297/25/1 298/26/1 299/27/1 300/28/1
f 301/25/1 302/26/1 303/27/1 304/28/1
f 305/25/1 306/26/1 307/27/1 308/28/1
f 309/25/1 310/26/1 311/27/1 312/28/1
f 313/25/1 314/26/1 315/27/1 316/28/1
f 317/49/1 318/50/1 319/36/1 320/35/1
f 321/50/1 322/51/1 323/39/1 324/36/1
f 325/51/1 326/52/1 327/41/1 328/39/1
f 329/35/1 330/36/1 331/37/1 332/38/1
f 333/36/1 334/39/1 335/40/1 336/37/1
f 337/39/1 338/41/1 339/42/1 340/40/1
f 341/49/1 342/50/1 343/36/1 344/35/1
f 345/50/1 346/51/1 347/39/1 348/36/1
f 349/51/1 350/52/1 351/41/1 352/39/1
f 353/36/1 354/39/1 355/40/1 356/37/1
f 357/36/1 358/39/1 359/40/1 360/37/1
f 361/36/1 362/39/1 363/40/1 364/37/1
f 365/50/1 366/51/1 367/39/1 368/36/1
f 369/51/1 370/52/1 371/41/1 372/39/1
f 373/56/1 374/28/1 375/27/1 376/57/1
f 377/56/1 378/28/1 379/27/1 380/57/1
f 381/56/1 382/28/1 383/27/1 384/57/1
f 385/56/1 386/28/1 387/27/1 388/57/1
f 389/56/1 390/28/1 391/27/1 392/57/1
f 393/56/1 394/28/1 395/27/1 396/57/1
f 397/49/1 398/50/1 399/36/1 400/35/1
f 401/50/1 402/51/1 403/39/1 404/36/1
f 405/50/1 406/51/1 407/39/1 408/36/1
f 409/50/1 410/51/1 411/39/1 412/36/1
f 413/50/1 414/51/1 415/39/1 416/36/1
f 417/50/1 418/51/1 419/39/1 420/36/1
f 421/50/1 422/51/1 423/39/1 424/36/1
f 425/51/1 426/52/1 427/41/1 428/39/1
f 429/56/1 430/28/1 431/27/1 432/57/1
f 433/56/1 434/28/1 435/27/1 436/57/1
f 437/56/1 438/28/1 439/27/1 440/57/1
f 441/56/1 442/28/1 443/27/1 444/57/1
f 445/56/1 446/28/1 447/27/1 448/57/1
f 449/56/1 450/28/1 451/27/1 452/57/1
f 453/25/1 454/26/1 455/27/1 456/28/1
f 457/25/1 458/26/1 459/27/1 460/28/1
f 461/25/1 462/26/1 463/27/1 464/28/1
f 465/25/1 466/26/1 467/27/1 468/28/1
f 469/25/1 470/26/1 471/27/1 472/28/1
f 473/49/1 474/50/1 475/36/1 476/35/1
f 477/50/1 478/51/1 479/39/1 480/36/1
f 481/54/1 482/55/1 483/51/1 484/50/1
f 485/54/1 486/55/1 487/51/1 488/50/1
f 489/54/1 490/55/1 491/51/1 492/50/1
f 493/54/1 494/55/1 495/51/1 496/50/1
f 497/54/1 498/55/1 499/51/1 500/50/1
f 501/55/1 502/58/1 503/52/1 504/51/1
f 505/56/1 506/28/1 507/27/1 508/57/1
f 509/56/1 510/28/1 511/27/1 512/57/1
f 513/56/1 514/28/1 515/27/1 516/57/1
f 517/56/1 518/28/1 519/27/1 520/57/1
f 521/56/1 522/28/1 523/27/1 524/57/1
f 525/56/1 526/28/1 527/27/1 528/57/1
f 529/25/1 530/26/1 531/27/1 532/28/1
f 533/25/1 534/26/1 535/27/1 536/28/1
f 537/25/1 538/26/1 539/27/1 540/28/1
f 541/25/1 542/26/1 543/27/1 544/28/1
f 545/25/1 546/26/1 547/27/1 548/28/1
f 549/49/1 550/50/1 551/36/1 552/35/1
f 553/50/1 554/51/1 555/39/1 556/36/1
f 557/51/1 558/52/1 559/41/1 560/39/1
f 561/56/1 562/28/1 563/27/1 564/57/1
f 565/56/1 566/28/1 567/27/1 568/57/1
f 569/56/1 570/28/1 571/27/1 572/57/1
f 573/56/1 574/28/1 575/27/1 576/57/1
f 577/56/1 578/28/1 579/27/1 580/57/1
f 581/56/1 582/28/1 583/27/1 584/57/1
f 585/25/1 586/26/1 587/27/1 588/28/1
f 589/25/1 590/26/1 591/27/1 592/28/1
f 593/25/1 594/26/1 595/27/1 596/28/1
f 597/25/1 598/26/1 599/27/1 600/28/1
f 601/25/1 602/26/1 603/27/1 604/28/1
f 605/49/1 606/50/1 607/36/1 608/35/1
f 609/50/1 610/51/1 611/39/1 612/36/1
f 613/51/1 614/52/1 615/41/1 616/39/1
f 617/56/1 618/28/1 619/27/1 620/57/1
f 621/56/1 622/28/1 623/27/1 624/57/1
f 625/56/1 626/28/1 627/27/1 628/57/1
f 629/56/1 630/28/1 631/27/1 632/57/1
f 633/56/1 634/28/1 635/27/1 636/57/1
f 637/56/1 638/28/1 639/27/1 640/57/1
f 641/25/1 642/26/1 643/27/1 644/28/1
f 645/25/1 646/26/1 647/27/1 648/28/1
f 649/25/1 650/26/1 651/27/1 652/28/1
f 653/25/1 654/26/1 655/27/1 656/28/1
f 657/25/1 658/26/1 659/27/1 660/28/1
f 661/35/1 662/36/1 663/37/1 664/38/1
f 665/36/1 666/39/1 667/40/1 668/37/1
f 669/36/1 670/39/1 671/40/1 672/37/1
f 673/36/1 674/39/1 675/40/1 676/37/1
f 677/49/1 678/50/1 679/36/1 680/35/1
f 681/50/1 682/51/1 683/39/1 684/36/1
f 685/51/1 686/52/1 687/41/1 688/39/1
f 689/59/1 690/60/1 691/61/1 692/62/1
f 693/59/1 694/60/1 695/61/1 696/62/1
f 697/59/1 698/60/1 699/61/1 700/62/1
f 701/59/1 702/60/1 703/61/1 704/62/1
f 705/25/1 706/26/1 707/27/1 708/28/1
f 709/25/1 710/26/1 711/27/1 712/28/1
f 713/25/1 714/26/1 715/27/1 716/28/1
f 717/25/1 718/26/1 719/27/1 720/28/1
f 721/25/1 722/26/1 723/27/1 724/28/1
f 725/25/1 726/26/1 727/27/1 728/28/1
f 729/25/1 730/26/1 731/27/1 732/28/1
f 733/49/1 734/50/1 735/36/1 736/35/1
f 737/50/1 738/51/1 739/39/1 740/36/1
f 741/50/1 742/51/1 743/39/1 744/36/1
f 745/50/1 746/51/1 747/39/1 748/36/1
f 749/50/1 750/51/1 751/39/1 752/36/1
f 753/50/1 754/51/1 755/39/1 756/36/1
f 757/51/1 758/52/1 759/41/1 760/39/1
f 761/25/1 762/26/1 763/27/1 764/28/1
f 765/25/1 766/26/1 767/27/1 768/28/1
f 769/25/1 770/26/1 771/27/1 772/28/1
f 773/25/1 774/26/1 775/27/1 776/28/1
f 777/25/1 778/26/1 779/27/1 780/28/1
f 781/53/1 782/54/1 783/50/1 784/49/1
f 785/54/1 786/55/1 787/51/1 788/50/1
f 789/54/1 790/55/1 791/51/1 792/50/1
f 793/54/1 794/55/1 795/51/1 796/50/1
f 797/54/1 798/55/1 799/51/1 800/50/1
f 801/54/1 802/55/1 803/51/1 804/50/1
f 805/55/1 806/58/1 807/52/1 808/51/1
f 809/25/1 810/26/1 811/27/1 812/28/1
f 813/25/1 814/26/1 815/27/1 816/28/1
f 817/25/1 818/26/1 819/27/1 820/28/1
f 821/25/1 822/26/1 823/27/1 824/28/1
f 825/25/1 826/26/1 827/27/1 828/28/1

