# Tiled2Unity generated file. Do not modify by hand.
# Wavefront file for 'mapa3_v1_huertos_mesh_0005.obj'

# Vertices (Count = 464)
v -2 -2 0
v -3 -2 0
v -3 -1 0
v -2 -1 0
v -8 -2 0
v -9 -2 0
v -9 -1 0
v -8 -1 0
v -22 -2 0
v -23 -2 0
v -23 -1 0
v -22 -1 0
v -23 -2 0
v -24 -2 0
v -24 -1 0
v -23 -1 0
v -22 -3 0
v -23 -3 0
v -23 -2 0
v -22 -2 0
v -23 -3 0
v -24 -3 0
v -24 -2 0
v -23 -2 0
v -1 -4 0
v -2 -4 0
v -2 -3 0
v -1 -3 0
v -15 -4 0
v -16 -4 0
v -16 -3 0
v -15 -3 0
v -16 -4 0
v -17 -4 0
v -17 -3 0
v -16 -3 0
v -17 -4 0
v -18 -4 0
v -18 -3 0
v -17 -3 0
v -18 -4 0
v -19 -4 0
v -19 -3 0
v -18 -3 0
v -19 -4 0
v -20 -4 0
v -20 -3 0
v -19 -3 0
v -25 -4 0
v -26 -4 0
v -26 -3 0
v -25 -3 0
v -15 -5 0
v -16 -5 0
v -16 -4 0
v -15 -4 0
v -16 -5 0
v -17 -5 0
v -17 -4 0
v -16 -4 0
v -17 -5 0
v -18 -5 0
v -18 -4 0
v -17 -4 0
v -18 -5 0
v -19 -5 0
v -19 -4 0
v -18 -4 0
v -19 -5 0
v -20 -5 0
v -20 -4 0
v -19 -4 0
v -22 -5 0
v -23 -5 0
v -23 -4 0
v -22 -4 0
v -25 -5 0
v -26 -5 0
v -26 -4 0
v -25 -4 0
v -29 -6 0
v -30 -6 0
v -30 -5 0
v -29 -5 0
v -15 -7 0
v -16 -7 0
v -16 -6 0
v -15 -6 0
v -16 -7 0
v -17 -7 0
v -17 -6 0
v -16 -6 0
v -17 -7 0
v -18 -7 0
v -18 -6 0
v -17 -6 0
v -18 -7 0
v -19 -7 0
v -19 -6 0
v -18 -6 0
v -19 -7 0
v -20 -7 0
v -20 -6 0
v -19 -6 0
v -22 -7 0
v -23 -7 0
v -23 -6 0
v -22 -6 0
v -23 -7 0
v -24 -7 0
v -24 -6 0
v -23 -6 0
v -24 -7 0
v -25 -7 0
v -25 -6 0
v -24 -6 0
v -15 -8 0
v -16 -8 0
v -16 -7 0
v -15 -7 0
v -16 -8 0
v -17 -8 0
v -17 -7 0
v -16 -7 0
v -17 -8 0
v -18 -8 0
v -18 -7 0
v -17 -7 0
v -18 -8 0
v -19 -8 0
v -19 -7 0
v -18 -7 0
v -19 -8 0
v -20 -8 0
v -20 -7 0
v -19 -7 0
v 0 -9 0
v -1 -9 0
v -1 -8 0
v 0 -8 0
v -3 -9 0
v -4 -9 0
v -4 -8 0
v -3 -8 0
v -21 -9 0
v -22 -9 0
v -22 -8 0
v -21 -8 0
v -24 -10 0
v -25 -10 0
v -25 -9 0
v -24 -9 0
v -25 -10 0
v -26 -10 0
v -26 -9 0
v -25 -9 0
v -26 -10 0
v -27 -10 0
v -27 -9 0
v -26 -9 0
v -27 -10 0
v -28 -10 0
v -28 -9 0
v -27 -9 0
v -28 -10 0
v -29 -10 0
v -29 -9 0
v -28 -9 0
v -29 -10 0
v -30 -10 0
v -30 -9 0
v -29 -9 0
v -24 -11 0
v -25 -11 0
v -25 -10 0
v -24 -10 0
v -25 -11 0
v -26 -11 0
v -26 -10 0
v -25 -10 0
v -26 -11 0
v -27 -11 0
v -27 -10 0
v -26 -10 0
v -27 -11 0
v -28 -11 0
v -28 -10 0
v -27 -10 0
v -28 -11 0
v -29 -11 0
v -29 -10 0
v -28 -10 0
v -29 -11 0
v -30 -11 0
v -30 -10 0
v -29 -10 0
v -2 -12 0
v -3 -12 0
v -3 -11 0
v -2 -11 0
v -3 -12 0
v -4 -12 0
v -4 -11 0
v -3 -11 0
v -4 -12 0
v -5 -12 0
v -5 -11 0
v -4 -11 0
v -5 -12 0
v -6 -12 0
v -6 -11 0
v -5 -11 0
v -6 -12 0
v -7 -12 0
v -7 -11 0
v -6 -11 0
v -10 -12 0
v -11 -12 0
v -11 -11 0
v -10 -11 0
v -24 -12 0
v -25 -12 0
v -25 -11 0
v -24 -11 0
v -25 -12 0
v -26 -12 0
v -26 -11 0
v -25 -11 0
v -26 -12 0
v -27 -12 0
v -27 -11 0
v -26 -11 0
v -27 -12 0
v -28 -12 0
v -28 -11 0
v -27 -11 0
v -28 -12 0
v -29 -12 0
v -29 -11 0
v -28 -11 0
v -29 -12 0
v -30 -12 0
v -30 -11 0
v -29 -11 0
v -2 -13 0
v -3 -13 0
v -3 -12 0
v -2 -12 0
v -3 -13 0
v -4 -13 0
v -4 -12 0
v -3 -12 0
v -4 -13 0
v -5 -13 0
v -5 -12 0
v -4 -12 0
v -5 -13 0
v -6 -13 0
v -6 -12 0
v -5 -12 0
v -6 -13 0
v -7 -13 0
v -7 -12 0
v -6 -12 0
v -24 -13 0
v -25 -13 0
v -25 -12 0
v -24 -12 0
v -25 -13 0
v -26 -13 0
v -26 -12 0
v -25 -12 0
v -26 -13 0
v -27 -13 0
v -27 -12 0
v -26 -12 0
v -27 -13 0
v -28 -13 0
v -28 -12 0
v -27 -12 0
v -28 -13 0
v -29 -13 0
v -29 -12 0
v -28 -12 0
v -29 -13 0
v -30 -13 0
v -30 -12 0
v -29 -12 0
v -2 -14 0
v -3 -14 0
v -3 -13 0
v -2 -13 0
v -3 -14 0
v -4 -14 0
v -4 -13 0
v -3 -13 0
v -4 -14 0
v -5 -14 0
v -5 -13 0
v -4 -13 0
v -5 -14 0
v -6 -14 0
v -6 -13 0
v -5 -13 0
v -6 -14 0
v -7 -14 0
v -7 -13 0
v -6 -13 0
v -8 -14 0
v -9 -14 0
v -9 -13 0
v -8 -13 0
v -15 -14 0
v -16 -14 0
v -16 -13 0
v -15 -13 0
v -16 -14 0
v -17 -14 0
v -17 -13 0
v -16 -13 0
v -20 -14 0
v -21 -14 0
v -21 -13 0
v -20 -13 0
v -21 -14 0
v -22 -14 0
v -22 -13 0
v -21 -13 0
v -24 -14 0
v -25 -14 0
v -25 -13 0
v -24 -13 0
v -25 -14 0
v -26 -14 0
v -26 -13 0
v -25 -13 0
v -26 -14 0
v -27 -14 0
v -27 -13 0
v -26 -13 0
v -27 -14 0
v -28 -14 0
v -28 -13 0
v -27 -13 0
v -28 -14 0
v -29 -14 0
v -29 -13 0
v -28 -13 0
v -29 -14 0
v -30 -14 0
v -30 -13 0
v -29 -13 0
v -2 -15 0
v -3 -15 0
v -3 -14 0
v -2 -14 0
v -3 -15 0
v -4 -15 0
v -4 -14 0
v -3 -14 0
v -4 -15 0
v -5 -15 0
v -5 -14 0
v -4 -14 0
v -5 -15 0
v -6 -15 0
v -6 -14 0
v -5 -14 0
v -6 -15 0
v -7 -15 0
v -7 -14 0
v -6 -14 0
v -15 -15 0
v -16 -15 0
v -16 -14 0
v -15 -14 0
v -16 -15 0
v -17 -15 0
v -17 -14 0
v -16 -14 0
v -20 -15 0
v -21 -15 0
v -21 -14 0
v -20 -14 0
v -21 -15 0
v -22 -15 0
v -22 -14 0
v -21 -14 0
v -2 -16 0
v -3 -16 0
v -3 -15 0
v -2 -15 0
v -3 -16 0
v -4 -16 0
v -4 -15 0
v -3 -15 0
v -4 -16 0
v -5 -16 0
v -5 -15 0
v -4 -15 0
v -5 -16 0
v -6 -16 0
v -6 -15 0
v -5 -15 0
v -6 -16 0
v -7 -16 0
v -7 -15 0
v -6 -15 0
v -23 -16 0
v -24 -16 0
v -24 -15 0
v -23 -15 0
v -2 -17 0
v -3 -17 0
v -3 -16 0
v -2 -16 0
v -3 -17 0
v -4 -17 0
v -4 -16 0
v -3 -16 0
v -4 -17 0
v -5 -17 0
v -5 -16 0
v -4 -16 0
v -5 -17 0
v -6 -17 0
v -6 -16 0
v -5 -16 0
v -6 -17 0
v -7 -17 0
v -7 -16 0
v -6 -16 0
v -2 -18 0
v -3 -18 0
v -3 -17 0
v -2 -17 0
v -3 -18 0
v -4 -18 0
v -4 -17 0
v -3 -17 0
v -4 -18 0
v -5 -18 0
v -5 -17 0
v -4 -17 0
v -5 -18 0
v -6 -18 0
v -6 -17 0
v -5 -17 0
v -6 -18 0
v -7 -18 0
v -7 -17 0
v -6 -17 0
v -8 -18 0
v -9 -18 0
v -9 -17 0
v -8 -17 0
v -11 -18 0
v -12 -18 0
v -12 -17 0
v -11 -17 0
v -8 -19 0
v -9 -19 0
v -9 -18 0
v -8 -18 0

# Texture cooridinates (Count = 77)
vt 0.175 0.8333333
vt 0.2 0.8333333
vt 0.2 0.8611111
vt 0.175 0.8611111
vt 0.025 0.75
vt 0.05 0.75
vt 0.05 0.7777778
vt 0.025 0.7777778
vt 0.775 0.8888889
vt 0.8 0.8888889
vt 0.8 0.9166667
vt 0.775 0.9166667
vt 0.825 0.8888889
vt 0.825 0.9166667
vt 0.775 0.8611111
vt 0.8 0.8611111
vt 0.825 0.8611111
vt 0 0.75
vt 0 0.7777778
vt 0.025 0.9722222
vt 0.05 0.9722222
vt 0.05 1
vt 0.025 1
vt 0.8 0.9444444
vt 0.825 0.9444444
vt 0.825 0.9722222
vt 0.8 0.9722222
vt 0.075 0.9722222
vt 0.075 1
vt 0.85 0.9166667
vt 0.85 0.9444444
vt 0.075 0.8333333
vt 0.1 0.8333333
vt 0.1 0.8611111
vt 0.075 0.8611111
vt 0.125 0.8333333
vt 0.125 0.8611111
vt 0.15 0.8333333
vt 0.15 0.8611111
vt 0.075 0.6666666
vt 0.1 0.6666666
vt 0.1 0.6944444
vt 0.075 0.6944444
vt 0.875 0.9166667
vt 0.875 0.9444444
vt 0.025 0.02777779
vt 0.05 0.02777779
vt 0.05 0.05555558
vt 0.025 0.05555558
vt 0.125 0.5277778
vt 0.15 0.5277778
vt 0.15 0.5555556
vt 0.125 0.5555556
vt 0.175 0.5277778
vt 0.175 0.5555556
vt 0.1 0.9444444
vt 0.125 0.9444444
vt 0.125 0.9722222
vt 0.1 0.9722222
vt 0.15 0.9444444
vt 0.15 0.9722222
vt 0.125 0.5
vt 0.15 0.5
vt 0.175 0.5
vt 0.1 0.9166667
vt 0.125 0.9166667
vt 0.15 0.9166667
vt 0.65 0.4166667
vt 0.675 0.4166667
vt 0.675 0.4444444
vt 0.65 0.4444444
vt 0.05 0.08333331
vt 0.075 0.08333331
vt 0.075 0.1111111
vt 0.05 0.1111111
vt 0.65 0.3888889
vt 0.675 0.3888889

# Normal
vn 0 0 -1

# Mesh description
g mapa3_v1_huertos_mesh_0005

# Faces
f 1/1/1 2/2/1 3/3/1 4/4/1
f 5/5/1 6/6/1 7/7/1 8/8/1
f 9/9/1 10/10/1 11/11/1 12/12/1
f 13/10/1 14/13/1 15/14/1 16/11/1
f 17/15/1 18/16/1 19/10/1 20/9/1
f 21/16/1 22/17/1 23/13/1 24/10/1
f 25/18/1 26/5/1 27/8/1 28/19/1
f 29/20/1 30/21/1 31/22/1 32/23/1
f 33/20/1 34/21/1 35/22/1 36/23/1
f 37/20/1 38/21/1 39/22/1 40/23/1
f 41/20/1 42/21/1 43/22/1 44/23/1
f 45/20/1 46/21/1 47/22/1 48/23/1
f 49/24/1 50/25/1 51/26/1 52/27/1
f 53/20/1 54/21/1 55/22/1 56/23/1
f 57/20/1 58/21/1 59/22/1 60/23/1
f 61/20/1 62/21/1 63/22/1 64/23/1
f 65/20/1 66/21/1 67/22/1 68/23/1
f 69/20/1 70/21/1 71/22/1 72/23/1
f 73/21/1 74/28/1 75/29/1 76/22/1
f 77/11/1 78/14/1 79/25/1 80/24/1
f 81/14/1 82/30/1 83/31/1 84/25/1
f 85/20/1 86/21/1 87/22/1 88/23/1
f 89/20/1 90/21/1 91/22/1 92/23/1
f 93/20/1 94/21/1 95/22/1 96/23/1
f 97/20/1 98/21/1 99/22/1 100/23/1
f 101/20/1 102/21/1 103/22/1 104/23/1
f 105/32/1 106/33/1 107/34/1 108/35/1
f 109/33/1 110/36/1 111/37/1 112/34/1
f 113/36/1 114/38/1 115/39/1 116/37/1
f 117/20/1 118/21/1 119/22/1 120/23/1
f 121/20/1 122/21/1 123/22/1 124/23/1
f 125/20/1 126/21/1 127/22/1 128/23/1
f 129/20/1 130/21/1 131/22/1 132/23/1
f 133/20/1 134/21/1 135/22/1 136/23/1
f 137/1/1 138/2/1 139/3/1 140/4/1
f 141/40/1 142/41/1 143/42/1 144/43/1
f 145/30/1 146/44/1 147/45/1 148/31/1
f 149/20/1 150/21/1 151/22/1 152/23/1
f 153/20/1 154/21/1 155/22/1 156/23/1
f 157/20/1 158/21/1 159/22/1 160/23/1
f 161/20/1 162/21/1 163/22/1 164/23/1
f 165/20/1 166/21/1 167/22/1 168/23/1
f 169/20/1 170/21/1 171/22/1 172/23/1
f 173/20/1 174/21/1 175/22/1 176/23/1
f 177/20/1 178/21/1 179/22/1 180/23/1
f 181/20/1 182/21/1 183/22/1 184/23/1
f 185/20/1 186/21/1 187/22/1 188/23/1
f 189/20/1 190/21/1 191/22/1 192/23/1
f 193/20/1 194/21/1 195/22/1 196/23/1
f 197/46/1 198/47/1 199/48/1 200/49/1
f 201/46/1 202/47/1 203/48/1 204/49/1
f 205/46/1 206/47/1 207/48/1 208/49/1
f 209/46/1 210/47/1 211/48/1 212/49/1
f 213/46/1 214/47/1 215/48/1 216/49/1
f 217/1/1 218/2/1 219/3/1 220/4/1
f 221/20/1 222/21/1 223/22/1 224/23/1
f 225/20/1 226/21/1 227/22/1 228/23/1
f 229/20/1 230/21/1 231/22/1 232/23/1
f 233/20/1 234/21/1 235/22/1 236/23/1
f 237/20/1 238/21/1 239/22/1 240/23/1
f 241/20/1 242/21/1 243/22/1 244/23/1
f 245/46/1 246/47/1 247/48/1 248/49/1
f 249/46/1 250/47/1 251/48/1 252/49/1
f 253/46/1 254/47/1 255/48/1 256/49/1
f 257/46/1 258/47/1 259/48/1 260/49/1
f 261/46/1 262/47/1 263/48/1 264/49/1
f 265/20/1 266/21/1 267/22/1 268/23/1
f 269/20/1 270/21/1 271/22/1 272/23/1
f 273/20/1 274/21/1 275/22/1 276/23/1
f 277/20/1 278/21/1 279/22/1 280/23/1
f 281/20/1 282/21/1 283/22/1 284/23/1
f 285/20/1 286/21/1 287/22/1 288/23/1
f 289/46/1 290/47/1 291/48/1 292/49/1
f 293/46/1 294/47/1 295/48/1 296/49/1
f 297/46/1 298/47/1 299/48/1 300/49/1
f 301/46/1 302/47/1 303/48/1 304/49/1
f 305/46/1 306/47/1 307/48/1 308/49/1
f 309/30/1 310/44/1 311/45/1 312/31/1
f 313/50/1 314/51/1 315/52/1 316/53/1
f 317/51/1 318/54/1 319/55/1 320/52/1
f 321/56/1 322/57/1 323/58/1 324/59/1
f 325/57/1 326/60/1 327/61/1 328/58/1
f 329/20/1 330/21/1 331/22/1 332/23/1
f 333/20/1 334/21/1 335/22/1 336/23/1
f 337/20/1 338/21/1 339/22/1 340/23/1
f 341/20/1 342/21/1 343/22/1 344/23/1
f 345/20/1 346/21/1 347/22/1 348/23/1
f 349/20/1 350/21/1 351/22/1 352/23/1
f 353/46/1 354/47/1 355/48/1 356/49/1
f 357/46/1 358/47/1 359/48/1 360/49/1
f 361/46/1 362/47/1 363/48/1 364/49/1
f 365/46/1 366/47/1 367/48/1 368/49/1
f 369/46/1 370/47/1 371/48/1 372/49/1
f 373/62/1 374/63/1 375/51/1 376/50/1
f 377/63/1 378/64/1 379/54/1 380/51/1
f 381/65/1 382/66/1 383/57/1 384/56/1
f 385/66/1 386/67/1 387/60/1 388/57/1
f 389/46/1 390/47/1 391/48/1 392/49/1
f 393/46/1 394/47/1 395/48/1 396/49/1
f 397/46/1 398/47/1 399/48/1 400/49/1
f 401/46/1 402/47/1 403/48/1 404/49/1
f 405/46/1 406/47/1 407/48/1 408/49/1
f 409/30/1 410/44/1 411/45/1 412/31/1
f 413/46/1 414/47/1 415/48/1 416/49/1
f 417/46/1 418/47/1 419/48/1 420/49/1
f 421/46/1 422/47/1 423/48/1 424/49/1
f 425/46/1 426/47/1 427/48/1 428/49/1
f 429/46/1 430/47/1 431/48/1 432/49/1
f 433/46/1 434/47/1 435/48/1 436/49/1
f 437/46/1 438/47/1 439/48/1 440/49/1
f 441/46/1 442/47/1 443/48/1 444/49/1
f 445/46/1 446/47/1 447/48/1 448/49/1
f 449/46/1 450/47/1 451/48/1 452/49/1
f 453/68/1 454/69/1 455/70/1 456/71/1
f 457/72/1 458/73/1 459/74/1 460/75/1
f 461/76/1 462/77/1 463/69/1 464/68/1

