# Tiled2Unity generated file. Do not modify by hand.
# Wavefront file for 'mapa6_v1_mesh_0005.obj'

# Vertices (Count = 820)
v 0 -1 0
v -1 -1 0
v -1 0 0
v 0 0 0
v -1 -1 0
v -2 -1 0
v -2 0 0
v -1 0 0
v -2 -1 0
v -3 -1 0
v -3 0 0
v -2 0 0
v -3 -1 0
v -4 -1 0
v -4 0 0
v -3 0 0
v -4 -1 0
v -5 -1 0
v -5 0 0
v -4 0 0
v -5 -1 0
v -6 -1 0
v -6 0 0
v -5 0 0
v -6 -1 0
v -7 -1 0
v -7 0 0
v -6 0 0
v -14 -1 0
v -15 -1 0
v -15 0 0
v -14 0 0
v -15 -1 0
v -16 -1 0
v -16 0 0
v -15 0 0
v -16 -1 0
v -17 -1 0
v -17 0 0
v -16 0 0
v -17 -1 0
v -18 -1 0
v -18 0 0
v -17 0 0
v -18 -1 0
v -19 -1 0
v -19 0 0
v -18 0 0
v -19 -1 0
v -20 -1 0
v -20 0 0
v -19 0 0
v -20 -1 0
v -21 -1 0
v -21 0 0
v -20 0 0
v 0 -2 0
v -1 -2 0
v -1 -1 0
v 0 -1 0
v -1 -2 0
v -2 -2 0
v -2 -1 0
v -1 -1 0
v -2 -2 0
v -3 -2 0
v -3 -1 0
v -2 -1 0
v -3 -2 0
v -4 -2 0
v -4 -1 0
v -3 -1 0
v -4 -2 0
v -5 -2 0
v -5 -1 0
v -4 -1 0
v -5 -2 0
v -6 -2 0
v -6 -1 0
v -5 -1 0
v -6 -2 0
v -7 -2 0
v -7 -1 0
v -6 -1 0
v -8 -2 0
v -9 -2 0
v -9 -1 0
v -8 -1 0
v -14 -2 0
v -15 -2 0
v -15 -1 0
v -14 -1 0
v -15 -2 0
v -16 -2 0
v -16 -1 0
v -15 -1 0
v -16 -2 0
v -17 -2 0
v -17 -1 0
v -16 -1 0
v -17 -2 0
v -18 -2 0
v -18 -1 0
v -17 -1 0
v -18 -2 0
v -19 -2 0
v -19 -1 0
v -18 -1 0
v -19 -2 0
v -20 -2 0
v -20 -1 0
v -19 -1 0
v -20 -2 0
v -21 -2 0
v -21 -1 0
v -20 -1 0
v 0 -3 0
v -1 -3 0
v -1 -2 0
v 0 -2 0
v -1 -3 0
v -2 -3 0
v -2 -2 0
v -1 -2 0
v -2 -3 0
v -3 -3 0
v -3 -2 0
v -2 -2 0
v -3 -3 0
v -4 -3 0
v -4 -2 0
v -3 -2 0
v -4 -3 0
v -5 -3 0
v -5 -2 0
v -4 -2 0
v -5 -3 0
v -6 -3 0
v -6 -2 0
v -5 -2 0
v -6 -3 0
v -7 -3 0
v -7 -2 0
v -6 -2 0
v -14 -3 0
v -15 -3 0
v -15 -2 0
v -14 -2 0
v -15 -3 0
v -16 -3 0
v -16 -2 0
v -15 -2 0
v -16 -3 0
v -17 -3 0
v -17 -2 0
v -16 -2 0
v -17 -3 0
v -18 -3 0
v -18 -2 0
v -17 -2 0
v -18 -3 0
v -19 -3 0
v -19 -2 0
v -18 -2 0
v -19 -3 0
v -20 -3 0
v -20 -2 0
v -19 -2 0
v -20 -3 0
v -21 -3 0
v -21 -2 0
v -20 -2 0
v 0 -4 0
v -1 -4 0
v -1 -3 0
v 0 -3 0
v -1 -4 0
v -2 -4 0
v -2 -3 0
v -1 -3 0
v -2 -4 0
v -3 -4 0
v -3 -3 0
v -2 -3 0
v -3 -4 0
v -4 -4 0
v -4 -3 0
v -3 -3 0
v -4 -4 0
v -5 -4 0
v -5 -3 0
v -4 -3 0
v -5 -4 0
v -6 -4 0
v -6 -3 0
v -5 -3 0
v -6 -4 0
v -7 -4 0
v -7 -3 0
v -6 -3 0
v -12 -4 0
v -13 -4 0
v -13 -3 0
v -12 -3 0
v -14 -4 0
v -15 -4 0
v -15 -3 0
v -14 -3 0
v -15 -4 0
v -16 -4 0
v -16 -3 0
v -15 -3 0
v -16 -4 0
v -17 -4 0
v -17 -3 0
v -16 -3 0
v -17 -4 0
v -18 -4 0
v -18 -3 0
v -17 -3 0
v -18 -4 0
v -19 -4 0
v -19 -3 0
v -18 -3 0
v -19 -4 0
v -20 -4 0
v -20 -3 0
v -19 -3 0
v -20 -4 0
v -21 -4 0
v -21 -3 0
v -20 -3 0
v -25 -4 0
v -26 -4 0
v -26 -3 0
v -25 -3 0
v -12 -5 0
v -13 -5 0
v -13 -4 0
v -12 -4 0
v -14 -5 0
v -15 -5 0
v -15 -4 0
v -14 -4 0
v -15 -5 0
v -16 -5 0
v -16 -4 0
v -15 -4 0
v -16 -5 0
v -17 -5 0
v -17 -4 0
v -16 -4 0
v -17 -5 0
v -18 -5 0
v -18 -4 0
v -17 -4 0
v -18 -5 0
v -19 -5 0
v -19 -4 0
v -18 -4 0
v -19 -5 0
v -20 -5 0
v -20 -4 0
v -19 -4 0
v -20 -5 0
v -21 -5 0
v -21 -4 0
v -20 -4 0
v -25 -5 0
v -26 -5 0
v -26 -4 0
v -25 -4 0
v -29 -6 0
v -30 -6 0
v -30 -5 0
v -29 -5 0
v -14 -7 0
v -15 -7 0
v -15 -6 0
v -14 -6 0
v -15 -7 0
v -16 -7 0
v -16 -6 0
v -15 -6 0
v -16 -7 0
v -17 -7 0
v -17 -6 0
v -16 -6 0
v -17 -7 0
v -18 -7 0
v -18 -6 0
v -17 -6 0
v -18 -7 0
v -19 -7 0
v -19 -6 0
v -18 -6 0
v -19 -7 0
v -20 -7 0
v -20 -6 0
v -19 -6 0
v -20 -7 0
v -21 -7 0
v -21 -6 0
v -20 -6 0
v -22 -7 0
v -23 -7 0
v -23 -6 0
v -22 -6 0
v -23 -7 0
v -24 -7 0
v -24 -6 0
v -23 -6 0
v -24 -7 0
v -25 -7 0
v -25 -6 0
v -24 -6 0
v -14 -8 0
v -15 -8 0
v -15 -7 0
v -14 -7 0
v -15 -8 0
v -16 -8 0
v -16 -7 0
v -15 -7 0
v -16 -8 0
v -17 -8 0
v -17 -7 0
v -16 -7 0
v -17 -8 0
v -18 -8 0
v -18 -7 0
v -17 -7 0
v -18 -8 0
v -19 -8 0
v -19 -7 0
v -18 -7 0
v -19 -8 0
v -20 -8 0
v -20 -7 0
v -19 -7 0
v -20 -8 0
v -21 -8 0
v -21 -7 0
v -20 -7 0
v 0 -9 0
v -1 -9 0
v -1 -8 0
v 0 -8 0
v -3 -9 0
v -4 -9 0
v -4 -8 0
v -3 -8 0
v -21 -9 0
v -22 -9 0
v -22 -8 0
v -21 -8 0
v -24 -10 0
v -25 -10 0
v -25 -9 0
v -24 -9 0
v -25 -10 0
v -26 -10 0
v -26 -9 0
v -25 -9 0
v -26 -10 0
v -27 -10 0
v -27 -9 0
v -26 -9 0
v -27 -10 0
v -28 -10 0
v -28 -9 0
v -27 -9 0
v -28 -10 0
v -29 -10 0
v -29 -9 0
v -28 -9 0
v -29 -10 0
v -30 -10 0
v -30 -9 0
v -29 -9 0
v -24 -11 0
v -25 -11 0
v -25 -10 0
v -24 -10 0
v -25 -11 0
v -26 -11 0
v -26 -10 0
v -25 -10 0
v -26 -11 0
v -27 -11 0
v -27 -10 0
v -26 -10 0
v -27 -11 0
v -28 -11 0
v -28 -10 0
v -27 -10 0
v -28 -11 0
v -29 -11 0
v -29 -10 0
v -28 -10 0
v -29 -11 0
v -30 -11 0
v -30 -10 0
v -29 -10 0
v -1 -12 0
v -2 -12 0
v -2 -11 0
v -1 -11 0
v -2 -12 0
v -3 -12 0
v -3 -11 0
v -2 -11 0
v -3 -12 0
v -4 -12 0
v -4 -11 0
v -3 -11 0
v -4 -12 0
v -5 -12 0
v -5 -11 0
v -4 -11 0
v -5 -12 0
v -6 -12 0
v -6 -11 0
v -5 -11 0
v -6 -12 0
v -7 -12 0
v -7 -11 0
v -6 -11 0
v -10 -12 0
v -11 -12 0
v -11 -11 0
v -10 -11 0
v -24 -12 0
v -25 -12 0
v -25 -11 0
v -24 -11 0
v -25 -12 0
v -26 -12 0
v -26 -11 0
v -25 -11 0
v -26 -12 0
v -27 -12 0
v -27 -11 0
v -26 -11 0
v -27 -12 0
v -28 -12 0
v -28 -11 0
v -27 -11 0
v -28 -12 0
v -29 -12 0
v -29 -11 0
v -28 -11 0
v -29 -12 0
v -30 -12 0
v -30 -11 0
v -29 -11 0
v -1 -13 0
v -2 -13 0
v -2 -12 0
v -1 -12 0
v -2 -13 0
v -3 -13 0
v -3 -12 0
v -2 -12 0
v -3 -13 0
v -4 -13 0
v -4 -12 0
v -3 -12 0
v -4 -13 0
v -5 -13 0
v -5 -12 0
v -4 -12 0
v -5 -13 0
v -6 -13 0
v -6 -12 0
v -5 -12 0
v -6 -13 0
v -7 -13 0
v -7 -12 0
v -6 -12 0
v -24 -13 0
v -25 -13 0
v -25 -12 0
v -24 -12 0
v -25 -13 0
v -26 -13 0
v -26 -12 0
v -25 -12 0
v -26 -13 0
v -27 -13 0
v -27 -12 0
v -26 -12 0
v -27 -13 0
v -28 -13 0
v -28 -12 0
v -27 -12 0
v -28 -13 0
v -29 -13 0
v -29 -12 0
v -28 -12 0
v -29 -13 0
v -30 -13 0
v -30 -12 0
v -29 -12 0
v -1 -14 0
v -2 -14 0
v -2 -13 0
v -1 -13 0
v -2 -14 0
v -3 -14 0
v -3 -13 0
v -2 -13 0
v -3 -14 0
v -4 -14 0
v -4 -13 0
v -3 -13 0
v -4 -14 0
v -5 -14 0
v -5 -13 0
v -4 -13 0
v -5 -14 0
v -6 -14 0
v -6 -13 0
v -5 -13 0
v -6 -14 0
v -7 -14 0
v -7 -13 0
v -6 -13 0
v -8 -14 0
v -9 -14 0
v -9 -13 0
v -8 -13 0
v -15 -14 0
v -16 -14 0
v -16 -13 0
v -15 -13 0
v -16 -14 0
v -17 -14 0
v -17 -13 0
v -16 -13 0
v -20 -14 0
v -21 -14 0
v -21 -13 0
v -20 -13 0
v -21 -14 0
v -22 -14 0
v -22 -13 0
v -21 -13 0
v -24 -14 0
v -25 -14 0
v -25 -13 0
v -24 -13 0
v -25 -14 0
v -26 -14 0
v -26 -13 0
v -25 -13 0
v -26 -14 0
v -27 -14 0
v -27 -13 0
v -26 -13 0
v -27 -14 0
v -28 -14 0
v -28 -13 0
v -27 -13 0
v -28 -14 0
v -29 -14 0
v -29 -13 0
v -28 -13 0
v -29 -14 0
v -30 -14 0
v -30 -13 0
v -29 -13 0
v -1 -15 0
v -2 -15 0
v -2 -14 0
v -1 -14 0
v -2 -15 0
v -3 -15 0
v -3 -14 0
v -2 -14 0
v -3 -15 0
v -4 -15 0
v -4 -14 0
v -3 -14 0
v -4 -15 0
v -5 -15 0
v -5 -14 0
v -4 -14 0
v -5 -15 0
v -6 -15 0
v -6 -14 0
v -5 -14 0
v -6 -15 0
v -7 -15 0
v -7 -14 0
v -6 -14 0
v -15 -15 0
v -16 -15 0
v -16 -14 0
v -15 -14 0
v -16 -15 0
v -17 -15 0
v -17 -14 0
v -16 -14 0
v -20 -15 0
v -21 -15 0
v -21 -14 0
v -20 -14 0
v -21 -15 0
v -22 -15 0
v -22 -14 0
v -21 -14 0
v -1 -16 0
v -2 -16 0
v -2 -15 0
v -1 -15 0
v -2 -16 0
v -3 -16 0
v -3 -15 0
v -2 -15 0
v -3 -16 0
v -4 -16 0
v -4 -15 0
v -3 -15 0
v -4 -16 0
v -5 -16 0
v -5 -15 0
v -4 -15 0
v -5 -16 0
v -6 -16 0
v -6 -15 0
v -5 -15 0
v -6 -16 0
v -7 -16 0
v -7 -15 0
v -6 -15 0
v -23 -16 0
v -24 -16 0
v -24 -15 0
v -23 -15 0
v -24 -16 0
v -25 -16 0
v -25 -15 0
v -24 -15 0
v -25 -16 0
v -26 -16 0
v -26 -15 0
v -25 -15 0
v -26 -16 0
v -27 -16 0
v -27 -15 0
v -26 -15 0
v -27 -16 0
v -28 -16 0
v -28 -15 0
v -27 -15 0
v -28 -16 0
v -29 -16 0
v -29 -15 0
v -28 -15 0
v -29 -16 0
v -30 -16 0
v -30 -15 0
v -29 -15 0
v -1 -17 0
v -2 -17 0
v -2 -16 0
v -1 -16 0
v -2 -17 0
v -3 -17 0
v -3 -16 0
v -2 -16 0
v -3 -17 0
v -4 -17 0
v -4 -16 0
v -3 -16 0
v -4 -17 0
v -5 -17 0
v -5 -16 0
v -4 -16 0
v -5 -17 0
v -6 -17 0
v -6 -16 0
v -5 -16 0
v -6 -17 0
v -7 -17 0
v -7 -16 0
v -6 -16 0
v -24 -17 0
v -25 -17 0
v -25 -16 0
v -24 -16 0
v -25 -17 0
v -26 -17 0
v -26 -16 0
v -25 -16 0
v -26 -17 0
v -27 -17 0
v -27 -16 0
v -26 -16 0
v -27 -17 0
v -28 -17 0
v -28 -16 0
v -27 -16 0
v -28 -17 0
v -29 -17 0
v -29 -16 0
v -28 -16 0
v -29 -17 0
v -30 -17 0
v -30 -16 0
v -29 -16 0
v -1 -18 0
v -2 -18 0
v -2 -17 0
v -1 -17 0
v -2 -18 0
v -3 -18 0
v -3 -17 0
v -2 -17 0
v -3 -18 0
v -4 -18 0
v -4 -17 0
v -3 -17 0
v -4 -18 0
v -5 -18 0
v -5 -17 0
v -4 -17 0
v -5 -18 0
v -6 -18 0
v -6 -17 0
v -5 -17 0
v -6 -18 0
v -7 -18 0
v -7 -17 0
v -6 -17 0
v -8 -18 0
v -9 -18 0
v -9 -17 0
v -8 -17 0
v -11 -18 0
v -12 -18 0
v -12 -17 0
v -11 -17 0
v -24 -18 0
v -25 -18 0
v -25 -17 0
v -24 -17 0
v -25 -18 0
v -26 -18 0
v -26 -17 0
v -25 -17 0
v -26 -18 0
v -27 -18 0
v -27 -17 0
v -26 -17 0
v -27 -18 0
v -28 -18 0
v -28 -17 0
v -27 -17 0
v -28 -18 0
v -29 -18 0
v -29 -17 0
v -28 -17 0
v -29 -18 0
v -30 -18 0
v -30 -17 0
v -29 -17 0
v -1 -19 0
v -2 -19 0
v -2 -18 0
v -1 -18 0
v -2 -19 0
v -3 -19 0
v -3 -18 0
v -2 -18 0
v -3 -19 0
v -4 -19 0
v -4 -18 0
v -3 -18 0
v -4 -19 0
v -5 -19 0
v -5 -18 0
v -4 -18 0
v -5 -19 0
v -6 -19 0
v -6 -18 0
v -5 -18 0
v -6 -19 0
v -7 -19 0
v -7 -18 0
v -6 -18 0
v -8 -19 0
v -9 -19 0
v -9 -18 0
v -8 -18 0
v -24 -19 0
v -25 -19 0
v -25 -18 0
v -24 -18 0
v -25 -19 0
v -26 -19 0
v -26 -18 0
v -25 -18 0
v -26 -19 0
v -27 -19 0
v -27 -18 0
v -26 -18 0
v -27 -19 0
v -28 -19 0
v -28 -18 0
v -27 -18 0
v -28 -19 0
v -29 -19 0
v -29 -18 0
v -28 -18 0
v -29 -19 0
v -30 -19 0
v -30 -18 0
v -29 -18 0

# Texture cooridinates (Count = 73)
vt 0.025 0.9722222
vt 0.05 0.9722222
vt 0.05 1
vt 0.025 1
vt 0 0.02777779
vt 0.025 0.02777779
vt 0.025 0.05555558
vt 0 0.05555558
vt 0.025 0.75
vt 0.05 0.75
vt 0.05 0.7777778
vt 0.025 0.7777778
vt 0.675 0.4166667
vt 0.7 0.4166667
vt 0.7 0.4444444
vt 0.675 0.4444444
vt 0.8 0.9444444
vt 0.825 0.9444444
vt 0.825 0.9722222
vt 0.8 0.9722222
vt 0.675 0.3888889
vt 0.7 0.3888889
vt 0.8 0.9166667
vt 0.825 0.9166667
vt 0.85 0.9166667
vt 0.85 0.9444444
vt 0 0
vt 0.025 0
vt 0.075 0.8333333
vt 0.1 0.8333333
vt 0.1 0.8611111
vt 0.075 0.8611111
vt 0.125 0.8333333
vt 0.125 0.8611111
vt 0.15 0.8333333
vt 0.15 0.8611111
vt 0.175 0.8333333
vt 0.2 0.8333333
vt 0.2 0.8611111
vt 0.175 0.8611111
vt 0.075 0.6666666
vt 0.1 0.6666666
vt 0.1 0.6944444
vt 0.075 0.6944444
vt 0.875 0.9166667
vt 0.875 0.9444444
vt 0.05 0.02777779
vt 0.05 0.05555558
vt 0.125 0.5277778
vt 0.15 0.5277778
vt 0.15 0.5555556
vt 0.125 0.5555556
vt 0.175 0.5277778
vt 0.175 0.5555556
vt 0.1 0.9444444
vt 0.125 0.9444444
vt 0.125 0.9722222
vt 0.1 0.9722222
vt 0.15 0.9444444
vt 0.15 0.9722222
vt 0.125 0.5
vt 0.15 0.5
vt 0.175 0.5
vt 0.1 0.9166667
vt 0.125 0.9166667
vt 0.15 0.9166667
vt 0.65 0.4166667
vt 0.65 0.4444444
vt 0.275 0.4722222
vt 0.3 0.4722222
vt 0.3 0.5
vt 0.275 0.5
vt 0.65 0.3888889

# Normal
vn 0 0 -1

# Mesh description
g mapa6_v1_mesh_0005

# Faces
f 1/1/1 2/2/1 3/3/1 4/4/1
f 5/1/1 6/2/1 7/3/1 8/4/1
f 9/1/1 10/2/1 11/3/1 12/4/1
f 13/1/1 14/2/1 15/3/1 16/4/1
f 17/1/1 18/2/1 19/3/1 20/4/1
f 21/1/1 22/2/1 23/3/1 24/4/1
f 25/1/1 26/2/1 27/3/1 28/4/1
f 29/5/1 30/6/1 31/7/1 32/8/1
f 33/5/1 34/6/1 35/7/1 36/8/1
f 37/5/1 38/6/1 39/7/1 40/8/1
f 41/5/1 42/6/1 43/7/1 44/8/1
f 45/5/1 46/6/1 47/7/1 48/8/1
f 49/5/1 50/6/1 51/7/1 52/8/1
f 53/5/1 54/6/1 55/7/1 56/8/1
f 57/1/1 58/2/1 59/3/1 60/4/1
f 61/1/1 62/2/1 63/3/1 64/4/1
f 65/1/1 66/2/1 67/3/1 68/4/1
f 69/1/1 70/2/1 71/3/1 72/4/1
f 73/1/1 74/2/1 75/3/1 76/4/1
f 77/1/1 78/2/1 79/3/1 80/4/1
f 81/1/1 82/2/1 83/3/1 84/4/1
f 85/9/1 86/10/1 87/11/1 88/12/1
f 89/5/1 90/6/1 91/7/1 92/8/1
f 93/5/1 94/6/1 95/7/1 96/8/1
f 97/5/1 98/6/1 99/7/1 100/8/1
f 101/5/1 102/6/1 103/7/1 104/8/1
f 105/5/1 106/6/1 107/7/1 108/8/1
f 109/5/1 110/6/1 111/7/1 112/8/1
f 113/5/1 114/6/1 115/7/1 116/8/1
f 117/1/1 118/2/1 119/3/1 120/4/1
f 121/1/1 122/2/1 123/3/1 124/4/1
f 125/1/1 126/2/1 127/3/1 128/4/1
f 129/1/1 130/2/1 131/3/1 132/4/1
f 133/1/1 134/2/1 135/3/1 136/4/1
f 137/1/1 138/2/1 139/3/1 140/4/1
f 141/1/1 142/2/1 143/3/1 144/4/1
f 145/5/1 146/6/1 147/7/1 148/8/1
f 149/5/1 150/6/1 151/7/1 152/8/1
f 153/5/1 154/6/1 155/7/1 156/8/1
f 157/5/1 158/6/1 159/7/1 160/8/1
f 161/5/1 162/6/1 163/7/1 164/8/1
f 165/5/1 166/6/1 167/7/1 168/8/1
f 169/5/1 170/6/1 171/7/1 172/8/1
f 173/1/1 174/2/1 175/3/1 176/4/1
f 177/1/1 178/2/1 179/3/1 180/4/1
f 181/1/1 182/2/1 183/3/1 184/4/1
f 185/1/1 186/2/1 187/3/1 188/4/1
f 189/1/1 190/2/1 191/3/1 192/4/1
f 193/1/1 194/2/1 195/3/1 196/4/1
f 197/1/1 198/2/1 199/3/1 200/4/1
f 201/13/1 202/14/1 203/15/1 204/16/1
f 205/5/1 206/6/1 207/7/1 208/8/1
f 209/5/1 210/6/1 211/7/1 212/8/1
f 213/5/1 214/6/1 215/7/1 216/8/1
f 217/5/1 218/6/1 219/7/1 220/8/1
f 221/5/1 222/6/1 223/7/1 224/8/1
f 225/5/1 226/6/1 227/7/1 228/8/1
f 229/5/1 230/6/1 231/7/1 232/8/1
f 233/17/1 234/18/1 235/19/1 236/20/1
f 237/21/1 238/22/1 239/14/1 240/13/1
f 241/5/1 242/6/1 243/7/1 244/8/1
f 245/5/1 246/6/1 247/7/1 248/8/1
f 249/5/1 250/6/1 251/7/1 252/8/1
f 253/5/1 254/6/1 255/7/1 256/8/1
f 257/5/1 258/6/1 259/7/1 260/8/1
f 261/5/1 262/6/1 263/7/1 264/8/1
f 265/5/1 266/6/1 267/7/1 268/8/1
f 269/23/1 270/24/1 271/18/1 272/17/1
f 273/24/1 274/25/1 275/26/1 276/18/1
f 277/27/1 278/28/1 279/6/1 280/5/1
f 281/27/1 282/28/1 283/6/1 284/5/1
f 285/27/1 286/28/1 287/6/1 288/5/1
f 289/27/1 290/28/1 291/6/1 292/5/1
f 293/27/1 294/28/1 295/6/1 296/5/1
f 297/27/1 298/28/1 299/6/1 300/5/1
f 301/27/1 302/28/1 303/6/1 304/5/1
f 305/29/1 306/30/1 307/31/1 308/32/1
f 309/30/1 310/33/1 311/34/1 312/31/1
f 313/33/1 314/35/1 315/36/1 316/34/1
f 317/27/1 318/28/1 319/6/1 320/5/1
f 321/27/1 322/28/1 323/6/1 324/5/1
f 325/27/1 326/28/1 327/6/1 328/5/1
f 329/27/1 330/28/1 331/6/1 332/5/1
f 333/27/1 334/28/1 335/6/1 336/5/1
f 337/27/1 338/28/1 339/6/1 340/5/1
f 341/27/1 342/28/1 343/6/1 344/5/1
f 345/37/1 346/38/1 347/39/1 348/40/1
f 349/41/1 350/42/1 351/43/1 352/44/1
f 353/25/1 354/45/1 355/46/1 356/26/1
f 357/27/1 358/28/1 359/6/1 360/5/1
f 361/27/1 362/28/1 363/6/1 364/5/1
f 365/27/1 366/28/1 367/6/1 368/5/1
f 369/27/1 370/28/1 371/6/1 372/5/1
f 373/27/1 374/28/1 375/6/1 376/5/1
f 377/27/1 378/28/1 379/6/1 380/5/1
f 381/27/1 382/28/1 383/6/1 384/5/1
f 385/27/1 386/28/1 387/6/1 388/5/1
f 389/27/1 390/28/1 391/6/1 392/5/1
f 393/27/1 394/28/1 395/6/1 396/5/1
f 397/27/1 398/28/1 399/6/1 400/5/1
f 401/27/1 402/28/1 403/6/1 404/5/1
f 405/6/1 406/47/1 407/48/1 408/7/1
f 409/6/1 410/47/1 411/48/1 412/7/1
f 413/6/1 414/47/1 415/48/1 416/7/1
f 417/6/1 418/47/1 419/48/1 420/7/1
f 421/6/1 422/47/1 423/48/1 424/7/1
f 425/6/1 426/47/1 427/48/1 428/7/1
f 429/37/1 430/38/1 431/39/1 432/40/1
f 433/27/1 434/28/1 435/6/1 436/5/1
f 437/27/1 438/28/1 439/6/1 440/5/1
f 441/27/1 442/28/1 443/6/1 444/5/1
f 445/27/1 446/28/1 447/6/1 448/5/1
f 449/27/1 450/28/1 451/6/1 452/5/1
f 453/27/1 454/28/1 455/6/1 456/5/1
f 457/6/1 458/47/1 459/48/1 460/7/1
f 461/6/1 462/47/1 463/48/1 464/7/1
f 465/6/1 466/47/1 467/48/1 468/7/1
f 469/6/1 470/47/1 471/48/1 472/7/1
f 473/6/1 474/47/1 475/48/1 476/7/1
f 477/6/1 478/47/1 479/48/1 480/7/1
f 481/27/1 482/28/1 483/6/1 484/5/1
f 485/27/1 486/28/1 487/6/1 488/5/1
f 489/27/1 490/28/1 491/6/1 492/5/1
f 493/27/1 494/28/1 495/6/1 496/5/1
f 497/27/1 498/28/1 499/6/1 500/5/1
f 501/27/1 502/28/1 503/6/1 504/5/1
f 505/6/1 506/47/1 507/48/1 508/7/1
f 509/6/1 510/47/1 511/48/1 512/7/1
f 513/6/1 514/47/1 515/48/1 516/7/1
f 517/6/1 518/47/1 519/48/1 520/7/1
f 521/6/1 522/47/1 523/48/1 524/7/1
f 525/6/1 526/47/1 527/48/1 528/7/1
f 529/25/1 530/45/1 531/46/1 532/26/1
f 533/49/1 534/50/1 535/51/1 536/52/1
f 537/50/1 538/53/1 539/54/1 540/51/1
f 541/55/1 542/56/1 543/57/1 544/58/1
f 545/56/1 546/59/1 547/60/1 548/57/1
f 549/27/1 550/28/1 551/6/1 552/5/1
f 553/27/1 554/28/1 555/6/1 556/5/1
f 557/27/1 558/28/1 559/6/1 560/5/1
f 561/27/1 562/28/1 563/6/1 564/5/1
f 565/27/1 566/28/1 567/6/1 568/5/1
f 569/27/1 570/28/1 571/6/1 572/5/1
f 573/6/1 574/47/1 575/48/1 576/7/1
f 577/6/1 578/47/1 579/48/1 580/7/1
f 581/6/1 582/47/1 583/48/1 584/7/1
f 585/6/1 586/47/1 587/48/1 588/7/1
f 589/6/1 590/47/1 591/48/1 592/7/1
f 593/6/1 594/47/1 595/48/1 596/7/1
f 597/61/1 598/62/1 599/50/1 600/49/1
f 601/62/1 602/63/1 603/53/1 604/50/1
f 605/64/1 606/65/1 607/56/1 608/55/1
f 609/65/1 610/66/1 611/59/1 612/56/1
f 613/6/1 614/47/1 615/48/1 616/7/1
f 617/6/1 618/47/1 619/48/1 620/7/1
f 621/6/1 622/47/1 623/48/1 624/7/1
f 625/6/1 626/47/1 627/48/1 628/7/1
f 629/6/1 630/47/1 631/48/1 632/7/1
f 633/6/1 634/47/1 635/48/1 636/7/1
f 637/25/1 638/45/1 639/46/1 640/26/1
f 641/27/1 642/28/1 643/6/1 644/5/1
f 645/27/1 646/28/1 647/6/1 648/5/1
f 649/27/1 650/28/1 651/6/1 652/5/1
f 653/27/1 654/28/1 655/6/1 656/5/1
f 657/27/1 658/28/1 659/6/1 660/5/1
f 661/27/1 662/28/1 663/6/1 664/5/1
f 665/6/1 666/47/1 667/48/1 668/7/1
f 669/6/1 670/47/1 671/48/1 672/7/1
f 673/6/1 674/47/1 675/48/1 676/7/1
f 677/6/1 678/47/1 679/48/1 680/7/1
f 681/6/1 682/47/1 683/48/1 684/7/1
f 685/6/1 686/47/1 687/48/1 688/7/1
f 689/27/1 690/28/1 691/6/1 692/5/1
f 693/27/1 694/28/1 695/6/1 696/5/1
f 697/27/1 698/28/1 699/6/1 700/5/1
f 701/27/1 702/28/1 703/6/1 704/5/1
f 705/27/1 706/28/1 707/6/1 708/5/1
f 709/27/1 710/28/1 711/6/1 712/5/1
f 713/6/1 714/47/1 715/48/1 716/7/1
f 717/6/1 718/47/1 719/48/1 720/7/1
f 721/6/1 722/47/1 723/48/1 724/7/1
f 725/6/1 726/47/1 727/48/1 728/7/1
f 729/6/1 730/47/1 731/48/1 732/7/1
f 733/6/1 734/47/1 735/48/1 736/7/1
f 737/67/1 738/13/1 739/16/1 740/68/1
f 741/69/1 742/70/1 743/71/1 744/72/1
f 745/27/1 746/28/1 747/6/1 748/5/1
f 749/27/1 750/28/1 751/6/1 752/5/1
f 753/27/1 754/28/1 755/6/1 756/5/1
f 757/27/1 758/28/1 759/6/1 760/5/1
f 761/27/1 762/28/1 763/6/1 764/5/1
f 765/27/1 766/28/1 767/6/1 768/5/1
f 769/6/1 770/47/1 771/48/1 772/7/1
f 773/6/1 774/47/1 775/48/1 776/7/1
f 777/6/1 778/47/1 779/48/1 780/7/1
f 781/6/1 782/47/1 783/48/1 784/7/1
f 785/6/1 786/47/1 787/48/1 788/7/1
f 789/6/1 790/47/1 791/48/1 792/7/1
f 793/73/1 794/21/1 795/13/1 796/67/1
f 797/27/1 798/28/1 799/6/1 800/5/1
f 801/27/1 802/28/1 803/6/1 804/5/1
f 805/27/1 806/28/1 807/6/1 808/5/1
f 809/27/1 810/28/1 811/6/1 812/5/1
f 813/27/1 814/28/1 815/6/1 816/5/1
f 817/27/1 818/28/1 819/6/1 820/5/1

