# Tiled2Unity generated file. Do not modify by hand.
# Wavefront file for 'mapa6_v1_mesh_0004.obj'

# Vertices (Count = 472)
v -7 -1 0
v -8 -1 0
v -8 0 0
v -7 0 0
v -13 -1 0
v -14 -1 0
v -14 0 0
v -13 0 0
v -21 -1 0
v -22 -1 0
v -22 0 0
v -21 0 0
v -7 -3 0
v -8 -3 0
v -8 -2 0
v -7 -2 0
v -13 -3 0
v -14 -3 0
v -14 -2 0
v -13 -2 0
v -21 -3 0
v -22 -3 0
v -22 -2 0
v -21 -2 0
v -7 -4 0
v -8 -4 0
v -8 -3 0
v -7 -3 0
v -13 -4 0
v -14 -4 0
v -14 -3 0
v -13 -3 0
v -21 -4 0
v -22 -4 0
v -22 -3 0
v -21 -3 0
v 0 -5 0
v -1 -5 0
v -1 -4 0
v 0 -4 0
v -1 -5 0
v -2 -5 0
v -2 -4 0
v -1 -4 0
v -2 -5 0
v -3 -5 0
v -3 -4 0
v -2 -4 0
v -5 -5 0
v -6 -5 0
v -6 -4 0
v -5 -4 0
v -6 -5 0
v -7 -5 0
v -7 -4 0
v -6 -4 0
v -7 -5 0
v -8 -5 0
v -8 -4 0
v -7 -4 0
v -13 -5 0
v -14 -5 0
v -14 -4 0
v -13 -4 0
v -21 -5 0
v -22 -5 0
v -22 -4 0
v -21 -4 0
v -13 -6 0
v -14 -6 0
v -14 -5 0
v -13 -5 0
v -14 -6 0
v -15 -6 0
v -15 -5 0
v -14 -5 0
v -15 -6 0
v -16 -6 0
v -16 -5 0
v -15 -5 0
v -16 -6 0
v -17 -6 0
v -17 -5 0
v -16 -5 0
v -18 -6 0
v -19 -6 0
v -19 -5 0
v -18 -5 0
v -19 -6 0
v -20 -6 0
v -20 -5 0
v -19 -5 0
v -20 -6 0
v -21 -6 0
v -21 -5 0
v -20 -5 0
v -21 -6 0
v -22 -6 0
v -22 -5 0
v -21 -5 0
v 0 -7 0
v -1 -7 0
v -1 -6 0
v 0 -6 0
v -1 -7 0
v -2 -7 0
v -2 -6 0
v -1 -6 0
v -2 -7 0
v -3 -7 0
v -3 -6 0
v -2 -6 0
v -5 -7 0
v -6 -7 0
v -6 -6 0
v -5 -6 0
v -6 -7 0
v -7 -7 0
v -7 -6 0
v -6 -6 0
v -7 -7 0
v -8 -7 0
v -8 -6 0
v -7 -6 0
v -8 -7 0
v -9 -7 0
v -9 -6 0
v -8 -6 0
v -9 -7 0
v -10 -7 0
v -10 -6 0
v -9 -6 0
v -10 -7 0
v -11 -7 0
v -11 -6 0
v -10 -6 0
v -11 -7 0
v -12 -7 0
v -12 -6 0
v -11 -6 0
v -13 -7 0
v -14 -7 0
v -14 -6 0
v -13 -6 0
v -21 -7 0
v -22 -7 0
v -22 -6 0
v -21 -6 0
v -11 -8 0
v -12 -8 0
v -12 -7 0
v -11 -7 0
v -13 -8 0
v -14 -8 0
v -14 -7 0
v -13 -7 0
v -21 -8 0
v -22 -8 0
v -22 -7 0
v -21 -7 0
v -11 -9 0
v -12 -9 0
v -12 -8 0
v -11 -8 0
v -13 -9 0
v -14 -9 0
v -14 -8 0
v -13 -8 0
v -14 -9 0
v -15 -9 0
v -15 -8 0
v -14 -8 0
v -15 -9 0
v -16 -9 0
v -16 -8 0
v -15 -8 0
v -16 -9 0
v -17 -9 0
v -17 -8 0
v -16 -8 0
v -18 -9 0
v -19 -9 0
v -19 -8 0
v -18 -8 0
v -19 -9 0
v -20 -9 0
v -20 -8 0
v -19 -8 0
v -20 -9 0
v -21 -9 0
v -21 -8 0
v -20 -8 0
v -21 -9 0
v -22 -9 0
v -22 -8 0
v -21 -8 0
v -23 -9 0
v -24 -9 0
v -24 -8 0
v -23 -8 0
v -24 -9 0
v -25 -9 0
v -25 -8 0
v -24 -8 0
v -25 -9 0
v -26 -9 0
v -26 -8 0
v -25 -8 0
v -26 -9 0
v -27 -9 0
v -27 -8 0
v -26 -8 0
v -29 -9 0
v -30 -9 0
v -30 -8 0
v -29 -8 0
v -23 -10 0
v -24 -10 0
v -24 -9 0
v -23 -9 0
v 0 -11 0
v -1 -11 0
v -1 -10 0
v 0 -10 0
v -1 -11 0
v -2 -11 0
v -2 -10 0
v -1 -10 0
v -2 -11 0
v -3 -11 0
v -3 -10 0
v -2 -10 0
v -3 -11 0
v -4 -11 0
v -4 -10 0
v -3 -10 0
v -5 -11 0
v -6 -11 0
v -6 -10 0
v -5 -10 0
v -6 -11 0
v -7 -11 0
v -7 -10 0
v -6 -10 0
v -7 -11 0
v -8 -11 0
v -8 -10 0
v -7 -10 0
v -18 -11 0
v -19 -11 0
v -19 -10 0
v -18 -10 0
v -23 -11 0
v -24 -11 0
v -24 -10 0
v -23 -10 0
v 0 -12 0
v -1 -12 0
v -1 -11 0
v 0 -11 0
v -7 -12 0
v -8 -12 0
v -8 -11 0
v -7 -11 0
v -13 -12 0
v -14 -12 0
v -14 -11 0
v -13 -11 0
v -14 -12 0
v -15 -12 0
v -15 -11 0
v -14 -11 0
v -17 -12 0
v -18 -12 0
v -18 -11 0
v -17 -11 0
v -18 -12 0
v -19 -12 0
v -19 -11 0
v -18 -11 0
v -23 -12 0
v -24 -12 0
v -24 -11 0
v -23 -11 0
v 0 -13 0
v -1 -13 0
v -1 -12 0
v 0 -12 0
v -7 -13 0
v -8 -13 0
v -8 -12 0
v -7 -12 0
v -13 -13 0
v -14 -13 0
v -14 -12 0
v -13 -12 0
v -23 -13 0
v -24 -13 0
v -24 -12 0
v -23 -12 0
v 0 -14 0
v -1 -14 0
v -1 -13 0
v 0 -13 0
v -7 -14 0
v -8 -14 0
v -8 -13 0
v -7 -13 0
v -13 -14 0
v -14 -14 0
v -14 -13 0
v -13 -13 0
v -23 -14 0
v -24 -14 0
v -24 -13 0
v -23 -13 0
v 0 -15 0
v -1 -15 0
v -1 -14 0
v 0 -14 0
v -7 -15 0
v -8 -15 0
v -8 -14 0
v -7 -14 0
v -13 -15 0
v -14 -15 0
v -14 -14 0
v -13 -14 0
v -23 -15 0
v -24 -15 0
v -24 -14 0
v -23 -14 0
v -24 -15 0
v -25 -15 0
v -25 -14 0
v -24 -14 0
v -25 -15 0
v -26 -15 0
v -26 -14 0
v -25 -14 0
v -26 -15 0
v -27 -15 0
v -27 -14 0
v -26 -14 0
v -29 -15 0
v -30 -15 0
v -30 -14 0
v -29 -14 0
v 0 -16 0
v -1 -16 0
v -1 -15 0
v 0 -15 0
v -13 -16 0
v -14 -16 0
v -14 -15 0
v -13 -15 0
v 0 -17 0
v -1 -17 0
v -1 -16 0
v 0 -16 0
v -7 -17 0
v -8 -17 0
v -8 -16 0
v -7 -16 0
v -13 -17 0
v -14 -17 0
v -14 -16 0
v -13 -16 0
v -14 -17 0
v -15 -17 0
v -15 -16 0
v -14 -16 0
v 0 -18 0
v -1 -18 0
v -1 -17 0
v 0 -17 0
v -7 -18 0
v -8 -18 0
v -8 -17 0
v -7 -17 0
v 0 -19 0
v -1 -19 0
v -1 -18 0
v 0 -18 0
v -7 -19 0
v -8 -19 0
v -8 -18 0
v -7 -18 0
v -17 -19 0
v -18 -19 0
v -18 -18 0
v -17 -18 0
v -18 -19 0
v -19 -19 0
v -19 -18 0
v -18 -18 0
v -19 -19 0
v -20 -19 0
v -20 -18 0
v -19 -18 0
v -20 -19 0
v -21 -19 0
v -21 -18 0
v -20 -18 0
v -21 -19 0
v -22 -19 0
v -22 -18 0
v -21 -18 0
v -23 -19 0
v -24 -19 0
v -24 -18 0
v -23 -18 0
v 0 -20 0
v -1 -20 0
v -1 -19 0
v 0 -19 0
v -1 -20 0
v -2 -20 0
v -2 -19 0
v -1 -19 0
v -2 -20 0
v -3 -20 0
v -3 -19 0
v -2 -19 0
v -3 -20 0
v -4 -20 0
v -4 -19 0
v -3 -19 0
v -4 -20 0
v -5 -20 0
v -5 -19 0
v -4 -19 0
v -5 -20 0
v -6 -20 0
v -6 -19 0
v -5 -19 0
v -6 -20 0
v -7 -20 0
v -7 -19 0
v -6 -19 0
v -7 -20 0
v -8 -20 0
v -8 -19 0
v -7 -19 0
v -23 -20 0
v -24 -20 0
v -24 -19 0
v -23 -19 0
v -24 -20 0
v -25 -20 0
v -25 -19 0
v -24 -19 0
v -25 -20 0
v -26 -20 0
v -26 -19 0
v -25 -19 0
v -26 -20 0
v -27 -20 0
v -27 -19 0
v -26 -19 0
v -27 -20 0
v -28 -20 0
v -28 -19 0
v -27 -19 0
v -28 -20 0
v -29 -20 0
v -29 -19 0
v -28 -19 0
v -29 -20 0
v -30 -20 0
v -30 -19 0
v -29 -19 0

# Texture cooridinates (Count = 21)
vt 0 0.4722222
vt 0.025 0.4722222
vt 0.025 0.5
vt 0 0.5
vt 0.025 0.5277778
vt 0 0.5277778
vt 0.1 0.4722222
vt 0.125 0.4722222
vt 0.125 0.5
vt 0.1 0.5
vt 0.125 0.5277778
vt 0.1 0.5277778
vt 0.025 0.4444444
vt 0.05 0.4444444
vt 0.05 0.4722222
vt 0 0.4444444
vt 0.075 0.4722222
vt 0.075 0.5
vt 0.075 0.5277778
vt 0.05 0.5
vt 0.05 0.5277778

# Normal
vn 0 0 -1

# Mesh description
g mapa6_v1_mesh_0004

# Faces
f 1/1/1 2/2/1 3/3/1 4/4/1
f 5/1/1 6/2/1 7/3/1 8/4/1
f 9/1/1 10/2/1 11/3/1 12/4/1
f 13/4/1 14/3/1 15/5/1 16/6/1
f 17/4/1 18/3/1 19/5/1 20/6/1
f 21/4/1 22/3/1 23/5/1 24/6/1
f 25/7/1 26/8/1 27/9/1 28/10/1
f 29/7/1 30/8/1 31/9/1 32/10/1
f 33/7/1 34/8/1 35/9/1 36/10/1
f 37/10/1 38/9/1 39/11/1 40/12/1
f 41/10/1 42/9/1 43/11/1 44/12/1
f 45/13/1 46/14/1 47/15/1 48/2/1
f 49/16/1 50/13/1 51/2/1 52/1/1
f 53/10/1 54/9/1 55/11/1 56/12/1
f 57/17/1 58/7/1 59/10/1 60/18/1
f 61/7/1 62/8/1 63/9/1 64/10/1
f 65/7/1 66/8/1 67/9/1 68/10/1
f 69/7/1 70/8/1 71/9/1 72/10/1
f 73/10/1 74/9/1 75/11/1 76/12/1
f 77/10/1 78/9/1 79/11/1 80/12/1
f 81/13/1 82/14/1 83/15/1 84/2/1
f 85/16/1 86/13/1 87/2/1 88/1/1
f 89/10/1 90/9/1 91/11/1 92/12/1
f 93/10/1 94/9/1 95/11/1 96/12/1
f 97/7/1 98/8/1 99/9/1 100/10/1
f 101/10/1 102/9/1 103/11/1 104/12/1
f 105/10/1 106/9/1 107/11/1 108/12/1
f 109/13/1 110/14/1 111/15/1 112/2/1
f 113/16/1 114/13/1 115/2/1 116/1/1
f 117/10/1 118/9/1 119/11/1 120/12/1
f 121/10/1 122/9/1 123/11/1 124/12/1
f 125/10/1 126/9/1 127/11/1 128/12/1
f 129/10/1 130/9/1 131/11/1 132/12/1
f 133/10/1 134/9/1 135/11/1 136/12/1
f 137/18/1 138/10/1 139/12/1 140/19/1
f 141/7/1 142/8/1 143/9/1 144/10/1
f 145/7/1 146/8/1 147/9/1 148/10/1
f 149/7/1 150/8/1 151/9/1 152/10/1
f 153/7/1 154/8/1 155/9/1 156/10/1
f 157/7/1 158/8/1 159/9/1 160/10/1
f 161/1/1 162/2/1 163/3/1 164/4/1
f 165/15/1 166/17/1 167/18/1 168/20/1
f 169/10/1 170/9/1 171/11/1 172/12/1
f 173/10/1 174/9/1 175/11/1 176/12/1
f 177/13/1 178/14/1 179/15/1 180/2/1
f 181/16/1 182/13/1 183/2/1 184/1/1
f 185/10/1 186/9/1 187/11/1 188/12/1
f 189/10/1 190/9/1 191/11/1 192/12/1
f 193/17/1 194/7/1 195/10/1 196/18/1
f 197/20/1 198/18/1 199/19/1 200/21/1
f 201/10/1 202/9/1 203/11/1 204/12/1
f 205/10/1 206/9/1 207/11/1 208/12/1
f 209/13/1 210/14/1 211/15/1 212/2/1
f 213/16/1 214/13/1 215/2/1 216/1/1
f 217/7/1 218/8/1 219/9/1 220/10/1
f 221/20/1 222/18/1 223/19/1 224/21/1
f 225/10/1 226/9/1 227/11/1 228/12/1
f 229/10/1 230/9/1 231/11/1 232/12/1
f 233/13/1 234/14/1 235/15/1 236/2/1
f 237/16/1 238/13/1 239/2/1 240/1/1
f 241/10/1 242/9/1 243/11/1 244/12/1
f 245/18/1 246/10/1 247/12/1 248/19/1
f 249/4/1 250/3/1 251/5/1 252/6/1
f 253/7/1 254/8/1 255/9/1 256/10/1
f 257/7/1 258/8/1 259/9/1 260/10/1
f 261/7/1 262/8/1 263/9/1 264/10/1
f 265/20/1 266/18/1 267/19/1 268/21/1
f 269/13/1 270/14/1 271/15/1 272/2/1
f 273/16/1 274/13/1 275/2/1 276/1/1
f 277/17/1 278/7/1 279/10/1 280/18/1
f 281/7/1 282/8/1 283/9/1 284/10/1
f 285/7/1 286/8/1 287/9/1 288/10/1
f 289/7/1 290/8/1 291/9/1 292/10/1
f 293/7/1 294/8/1 295/9/1 296/10/1
f 297/7/1 298/8/1 299/9/1 300/10/1
f 301/7/1 302/8/1 303/9/1 304/10/1
f 305/7/1 306/8/1 307/9/1 308/10/1
f 309/7/1 310/8/1 311/9/1 312/10/1
f 313/7/1 314/8/1 315/9/1 316/10/1
f 317/7/1 318/8/1 319/9/1 320/10/1
f 321/1/1 322/2/1 323/3/1 324/4/1
f 325/7/1 326/8/1 327/9/1 328/10/1
f 329/1/1 330/2/1 331/3/1 332/4/1
f 333/10/1 334/9/1 335/11/1 336/12/1
f 337/10/1 338/9/1 339/11/1 340/12/1
f 341/13/1 342/14/1 343/15/1 344/2/1
f 345/16/1 346/13/1 347/2/1 348/1/1
f 349/7/1 350/8/1 351/9/1 352/10/1
f 353/7/1 354/8/1 355/9/1 356/10/1
f 357/7/1 358/8/1 359/9/1 360/10/1
f 361/4/1 362/3/1 363/5/1 364/6/1
f 365/15/1 366/17/1 367/18/1 368/20/1
f 369/13/1 370/14/1 371/15/1 372/2/1
f 373/7/1 374/8/1 375/9/1 376/10/1
f 377/7/1 378/8/1 379/9/1 380/10/1
f 381/7/1 382/8/1 383/9/1 384/10/1
f 385/7/1 386/8/1 387/9/1 388/10/1
f 389/16/1 390/13/1 391/2/1 392/1/1
f 393/10/1 394/9/1 395/11/1 396/12/1
f 397/10/1 398/9/1 399/11/1 400/12/1
f 401/10/1 402/9/1 403/11/1 404/12/1
f 405/13/1 406/14/1 407/15/1 408/2/1
f 409/4/1 410/3/1 411/5/1 412/6/1
f 413/15/1 414/17/1 415/18/1 416/20/1
f 417/10/1 418/9/1 419/11/1 420/12/1
f 421/10/1 422/9/1 423/11/1 424/12/1
f 425/10/1 426/9/1 427/11/1 428/12/1
f 429/10/1 430/9/1 431/11/1 432/12/1
f 433/10/1 434/9/1 435/11/1 436/12/1
f 437/10/1 438/9/1 439/11/1 440/12/1
f 441/17/1 442/7/1 443/10/1 444/18/1
f 445/15/1 446/17/1 447/18/1 448/20/1
f 449/10/1 450/9/1 451/11/1 452/12/1
f 453/10/1 454/9/1 455/11/1 456/12/1
f 457/10/1 458/9/1 459/11/1 460/12/1
f 461/10/1 462/9/1 463/11/1 464/12/1
f 465/10/1 466/9/1 467/11/1 468/12/1
f 469/10/1 470/9/1 471/11/1 472/12/1

