# Tiled2Unity generated file. Do not modify by hand.
# Wavefront file for 'mapa5_v1_mesh_0004.obj'

# Vertices (Count = 544)
v -13 -1 0
v -14 -1 0
v -14 0 0
v -13 0 0
v -21 -1 0
v -22 -1 0
v -22 0 0
v -21 0 0
v -13 -3 0
v -14 -3 0
v -14 -2 0
v -13 -2 0
v -21 -3 0
v -22 -3 0
v -22 -2 0
v -21 -2 0
v -13 -4 0
v -14 -4 0
v -14 -3 0
v -13 -3 0
v -21 -4 0
v -22 -4 0
v -22 -3 0
v -21 -3 0
v -2 -5 0
v -3 -5 0
v -3 -4 0
v -2 -4 0
v -3 -5 0
v -4 -5 0
v -4 -4 0
v -3 -4 0
v -4 -5 0
v -5 -5 0
v -5 -4 0
v -4 -4 0
v -5 -5 0
v -6 -5 0
v -6 -4 0
v -5 -4 0
v -6 -5 0
v -7 -5 0
v -7 -4 0
v -6 -4 0
v -7 -5 0
v -8 -5 0
v -8 -4 0
v -7 -4 0
v -13 -5 0
v -14 -5 0
v -14 -4 0
v -13 -4 0
v -21 -5 0
v -22 -5 0
v -22 -4 0
v -21 -4 0
v -13 -6 0
v -14 -6 0
v -14 -5 0
v -13 -5 0
v -14 -6 0
v -15 -6 0
v -15 -5 0
v -14 -5 0
v -15 -6 0
v -16 -6 0
v -16 -5 0
v -15 -5 0
v -16 -6 0
v -17 -6 0
v -17 -5 0
v -16 -5 0
v -18 -6 0
v -19 -6 0
v -19 -5 0
v -18 -5 0
v -19 -6 0
v -20 -6 0
v -20 -5 0
v -19 -5 0
v -20 -6 0
v -21 -6 0
v -21 -5 0
v -20 -5 0
v -21 -6 0
v -22 -6 0
v -22 -5 0
v -21 -5 0
v -2 -7 0
v -3 -7 0
v -3 -6 0
v -2 -6 0
v -3 -7 0
v -4 -7 0
v -4 -6 0
v -3 -6 0
v -4 -7 0
v -5 -7 0
v -5 -6 0
v -4 -6 0
v -5 -7 0
v -6 -7 0
v -6 -6 0
v -5 -6 0
v -6 -7 0
v -7 -7 0
v -7 -6 0
v -6 -6 0
v -7 -7 0
v -8 -7 0
v -8 -6 0
v -7 -6 0
v -13 -7 0
v -14 -7 0
v -14 -6 0
v -13 -6 0
v -21 -7 0
v -22 -7 0
v -22 -6 0
v -21 -6 0
v -13 -8 0
v -14 -8 0
v -14 -7 0
v -13 -7 0
v -21 -8 0
v -22 -8 0
v -22 -7 0
v -21 -7 0
v -13 -9 0
v -14 -9 0
v -14 -8 0
v -13 -8 0
v -14 -9 0
v -15 -9 0
v -15 -8 0
v -14 -8 0
v -15 -9 0
v -16 -9 0
v -16 -8 0
v -15 -8 0
v -16 -9 0
v -17 -9 0
v -17 -8 0
v -16 -8 0
v -18 -9 0
v -19 -9 0
v -19 -8 0
v -18 -8 0
v -19 -9 0
v -20 -9 0
v -20 -8 0
v -19 -8 0
v -20 -9 0
v -21 -9 0
v -21 -8 0
v -20 -8 0
v -21 -9 0
v -22 -9 0
v -22 -8 0
v -21 -8 0
v -23 -9 0
v -24 -9 0
v -24 -8 0
v -23 -8 0
v -24 -9 0
v -25 -9 0
v -25 -8 0
v -24 -8 0
v -25 -9 0
v -26 -9 0
v -26 -8 0
v -25 -8 0
v -26 -9 0
v -27 -9 0
v -27 -8 0
v -26 -8 0
v -29 -9 0
v -30 -9 0
v -30 -8 0
v -29 -8 0
v -23 -10 0
v -24 -10 0
v -24 -9 0
v -23 -9 0
v 0 -11 0
v -1 -11 0
v -1 -10 0
v 0 -10 0
v -1 -11 0
v -2 -11 0
v -2 -10 0
v -1 -10 0
v -2 -11 0
v -3 -11 0
v -3 -10 0
v -2 -10 0
v -3 -11 0
v -4 -11 0
v -4 -10 0
v -3 -10 0
v -5 -11 0
v -6 -11 0
v -6 -10 0
v -5 -10 0
v -6 -11 0
v -7 -11 0
v -7 -10 0
v -6 -10 0
v -7 -11 0
v -8 -11 0
v -8 -10 0
v -7 -10 0
v -18 -11 0
v -19 -11 0
v -19 -10 0
v -18 -10 0
v -23 -11 0
v -24 -11 0
v -24 -10 0
v -23 -10 0
v 0 -12 0
v -1 -12 0
v -1 -11 0
v 0 -11 0
v -7 -12 0
v -8 -12 0
v -8 -11 0
v -7 -11 0
v -13 -12 0
v -14 -12 0
v -14 -11 0
v -13 -11 0
v -14 -12 0
v -15 -12 0
v -15 -11 0
v -14 -11 0
v -17 -12 0
v -18 -12 0
v -18 -11 0
v -17 -11 0
v -18 -12 0
v -19 -12 0
v -19 -11 0
v -18 -11 0
v -23 -12 0
v -24 -12 0
v -24 -11 0
v -23 -11 0
v 0 -13 0
v -1 -13 0
v -1 -12 0
v 0 -12 0
v -7 -13 0
v -8 -13 0
v -8 -12 0
v -7 -12 0
v -13 -13 0
v -14 -13 0
v -14 -12 0
v -13 -12 0
v -23 -13 0
v -24 -13 0
v -24 -12 0
v -23 -12 0
v 0 -14 0
v -1 -14 0
v -1 -13 0
v 0 -13 0
v -7 -14 0
v -8 -14 0
v -8 -13 0
v -7 -13 0
v -13 -14 0
v -14 -14 0
v -14 -13 0
v -13 -13 0
v -23 -14 0
v -24 -14 0
v -24 -13 0
v -23 -13 0
v 0 -15 0
v -1 -15 0
v -1 -14 0
v 0 -14 0
v -7 -15 0
v -8 -15 0
v -8 -14 0
v -7 -14 0
v -13 -15 0
v -14 -15 0
v -14 -14 0
v -13 -14 0
v -23 -15 0
v -24 -15 0
v -24 -14 0
v -23 -14 0
v -24 -15 0
v -25 -15 0
v -25 -14 0
v -24 -14 0
v -25 -15 0
v -26 -15 0
v -26 -14 0
v -25 -14 0
v -26 -15 0
v -27 -15 0
v -27 -14 0
v -26 -14 0
v -29 -15 0
v -30 -15 0
v -30 -14 0
v -29 -14 0
v 0 -16 0
v -1 -16 0
v -1 -15 0
v 0 -15 0
v -13 -16 0
v -14 -16 0
v -14 -15 0
v -13 -15 0
v -24 -16 0
v -25 -16 0
v -25 -15 0
v -24 -15 0
v -25 -16 0
v -26 -16 0
v -26 -15 0
v -25 -15 0
v -26 -16 0
v -27 -16 0
v -27 -15 0
v -26 -15 0
v -27 -16 0
v -28 -16 0
v -28 -15 0
v -27 -15 0
v -28 -16 0
v -29 -16 0
v -29 -15 0
v -28 -15 0
v -29 -16 0
v -30 -16 0
v -30 -15 0
v -29 -15 0
v 0 -17 0
v -1 -17 0
v -1 -16 0
v 0 -16 0
v -7 -17 0
v -8 -17 0
v -8 -16 0
v -7 -16 0
v -13 -17 0
v -14 -17 0
v -14 -16 0
v -13 -16 0
v -14 -17 0
v -15 -17 0
v -15 -16 0
v -14 -16 0
v -24 -17 0
v -25 -17 0
v -25 -16 0
v -24 -16 0
v -25 -17 0
v -26 -17 0
v -26 -16 0
v -25 -16 0
v -26 -17 0
v -27 -17 0
v -27 -16 0
v -26 -16 0
v -27 -17 0
v -28 -17 0
v -28 -16 0
v -27 -16 0
v -28 -17 0
v -29 -17 0
v -29 -16 0
v -28 -16 0
v -29 -17 0
v -30 -17 0
v -30 -16 0
v -29 -16 0
v 0 -18 0
v -1 -18 0
v -1 -17 0
v 0 -17 0
v -4 -18 0
v -5 -18 0
v -5 -17 0
v -4 -17 0
v -5 -18 0
v -6 -18 0
v -6 -17 0
v -5 -17 0
v -6 -18 0
v -7 -18 0
v -7 -17 0
v -6 -17 0
v -7 -18 0
v -8 -18 0
v -8 -17 0
v -7 -17 0
v -24 -18 0
v -25 -18 0
v -25 -17 0
v -24 -17 0
v -25 -18 0
v -26 -18 0
v -26 -17 0
v -25 -17 0
v -26 -18 0
v -27 -18 0
v -27 -17 0
v -26 -17 0
v -27 -18 0
v -28 -18 0
v -28 -17 0
v -27 -17 0
v -28 -18 0
v -29 -18 0
v -29 -17 0
v -28 -17 0
v -29 -18 0
v -30 -18 0
v -30 -17 0
v -29 -17 0
v 0 -19 0
v -1 -19 0
v -1 -18 0
v 0 -18 0
v -7 -19 0
v -8 -19 0
v -8 -18 0
v -7 -18 0
v -17 -19 0
v -18 -19 0
v -18 -18 0
v -17 -18 0
v -18 -19 0
v -19 -19 0
v -19 -18 0
v -18 -18 0
v -19 -19 0
v -20 -19 0
v -20 -18 0
v -19 -18 0
v -20 -19 0
v -21 -19 0
v -21 -18 0
v -20 -18 0
v -21 -19 0
v -22 -19 0
v -22 -18 0
v -21 -18 0
v -23 -19 0
v -24 -19 0
v -24 -18 0
v -23 -18 0
v -24 -19 0
v -25 -19 0
v -25 -18 0
v -24 -18 0
v -25 -19 0
v -26 -19 0
v -26 -18 0
v -25 -18 0
v -26 -19 0
v -27 -19 0
v -27 -18 0
v -26 -18 0
v -27 -19 0
v -28 -19 0
v -28 -18 0
v -27 -18 0
v -28 -19 0
v -29 -19 0
v -29 -18 0
v -28 -18 0
v -29 -19 0
v -30 -19 0
v -30 -18 0
v -29 -18 0
v 0 -20 0
v -1 -20 0
v -1 -19 0
v 0 -19 0
v -1 -20 0
v -2 -20 0
v -2 -19 0
v -1 -19 0
v -2 -20 0
v -3 -20 0
v -3 -19 0
v -2 -19 0
v -3 -20 0
v -4 -20 0
v -4 -19 0
v -3 -19 0
v -4 -20 0
v -5 -20 0
v -5 -19 0
v -4 -19 0
v -5 -20 0
v -6 -20 0
v -6 -19 0
v -5 -19 0
v -6 -20 0
v -7 -20 0
v -7 -19 0
v -6 -19 0
v -7 -20 0
v -8 -20 0
v -8 -19 0
v -7 -19 0
v -23 -20 0
v -24 -20 0
v -24 -19 0
v -23 -19 0
v -24 -20 0
v -25 -20 0
v -25 -19 0
v -24 -19 0
v -25 -20 0
v -26 -20 0
v -26 -19 0
v -25 -19 0
v -26 -20 0
v -27 -20 0
v -27 -19 0
v -26 -19 0
v -27 -20 0
v -28 -20 0
v -28 -19 0
v -27 -19 0
v -28 -20 0
v -29 -20 0
v -29 -19 0
v -28 -19 0
v -29 -20 0
v -30 -20 0
v -30 -19 0
v -29 -19 0

# Texture cooridinates (Count = 29)
vt 0 0.4722222
vt 0.025 0.4722222
vt 0.025 0.5
vt 0 0.5
vt 0.025 0.5277778
vt 0 0.5277778
vt 0.1 0.4722222
vt 0.125 0.4722222
vt 0.125 0.5
vt 0.1 0.5
vt 0 0.4444444
vt 0.025 0.4444444
vt 0.125 0.5277778
vt 0.1 0.5277778
vt 0.05 0.4444444
vt 0.05 0.4722222
vt 0.075 0.4722222
vt 0.075 0.5
vt 0.05 0.5
vt 0.075 0.5277778
vt 0.05 0.5277778
vt 0.025 0.9722222
vt 0.05 0.9722222
vt 0.05 1
vt 0.025 1
vt 0.025 0.02777779
vt 0.05 0.02777779
vt 0.05 0.05555558
vt 0.025 0.05555558

# Normal
vn 0 0 -1

# Mesh description
g mapa5_v1_mesh_0004

# Faces
f 1/1/1 2/2/1 3/3/1 4/4/1
f 5/1/1 6/2/1 7/3/1 8/4/1
f 9/4/1 10/3/1 11/5/1 12/6/1
f 13/4/1 14/3/1 15/5/1 16/6/1
f 17/7/1 18/8/1 19/9/1 20/10/1
f 21/7/1 22/8/1 23/9/1 24/10/1
f 25/11/1 26/12/1 27/2/1 28/1/1
f 29/10/1 30/9/1 31/13/1 32/14/1
f 33/10/1 34/9/1 35/13/1 36/14/1
f 37/10/1 38/9/1 39/13/1 40/14/1
f 41/10/1 42/9/1 43/13/1 44/14/1
f 45/12/1 46/15/1 47/16/1 48/2/1
f 49/7/1 50/8/1 51/9/1 52/10/1
f 53/7/1 54/8/1 55/9/1 56/10/1
f 57/7/1 58/8/1 59/9/1 60/10/1
f 61/10/1 62/9/1 63/13/1 64/14/1
f 65/10/1 66/9/1 67/13/1 68/14/1
f 69/12/1 70/15/1 71/16/1 72/2/1
f 73/11/1 74/12/1 75/2/1 76/1/1
f 77/10/1 78/9/1 79/13/1 80/14/1
f 81/10/1 82/9/1 83/13/1 84/14/1
f 85/7/1 86/8/1 87/9/1 88/10/1
f 89/11/1 90/12/1 91/2/1 92/1/1
f 93/10/1 94/9/1 95/13/1 96/14/1
f 97/10/1 98/9/1 99/13/1 100/14/1
f 101/10/1 102/9/1 103/13/1 104/14/1
f 105/10/1 106/9/1 107/13/1 108/14/1
f 109/12/1 110/15/1 111/16/1 112/2/1
f 113/7/1 114/8/1 115/9/1 116/10/1
f 117/7/1 118/8/1 119/9/1 120/10/1
f 121/7/1 122/8/1 123/9/1 124/10/1
f 125/7/1 126/8/1 127/9/1 128/10/1
f 129/16/1 130/17/1 131/18/1 132/19/1
f 133/10/1 134/9/1 135/13/1 136/14/1
f 137/10/1 138/9/1 139/13/1 140/14/1
f 141/12/1 142/15/1 143/16/1 144/2/1
f 145/11/1 146/12/1 147/2/1 148/1/1
f 149/10/1 150/9/1 151/13/1 152/14/1
f 153/10/1 154/9/1 155/13/1 156/14/1
f 157/17/1 158/7/1 159/10/1 160/18/1
f 161/19/1 162/18/1 163/20/1 164/21/1
f 165/10/1 166/9/1 167/13/1 168/14/1
f 169/10/1 170/9/1 171/13/1 172/14/1
f 173/12/1 174/15/1 175/16/1 176/2/1
f 177/11/1 178/12/1 179/2/1 180/1/1
f 181/7/1 182/8/1 183/9/1 184/10/1
f 185/19/1 186/18/1 187/20/1 188/21/1
f 189/10/1 190/9/1 191/13/1 192/14/1
f 193/10/1 194/9/1 195/13/1 196/14/1
f 197/12/1 198/15/1 199/16/1 200/2/1
f 201/11/1 202/12/1 203/2/1 204/1/1
f 205/10/1 206/9/1 207/13/1 208/14/1
f 209/18/1 210/10/1 211/14/1 212/20/1
f 213/4/1 214/3/1 215/5/1 216/6/1
f 217/7/1 218/8/1 219/9/1 220/10/1
f 221/7/1 222/8/1 223/9/1 224/10/1
f 225/7/1 226/8/1 227/9/1 228/10/1
f 229/19/1 230/18/1 231/20/1 232/21/1
f 233/12/1 234/15/1 235/16/1 236/2/1
f 237/11/1 238/12/1 239/2/1 240/1/1
f 241/17/1 242/7/1 243/10/1 244/18/1
f 245/7/1 246/8/1 247/9/1 248/10/1
f 249/7/1 250/8/1 251/9/1 252/10/1
f 253/7/1 254/8/1 255/9/1 256/10/1
f 257/7/1 258/8/1 259/9/1 260/10/1
f 261/7/1 262/8/1 263/9/1 264/10/1
f 265/7/1 266/8/1 267/9/1 268/10/1
f 269/7/1 270/8/1 271/9/1 272/10/1
f 273/7/1 274/8/1 275/9/1 276/10/1
f 277/7/1 278/8/1 279/9/1 280/10/1
f 281/7/1 282/8/1 283/9/1 284/10/1
f 285/1/1 286/2/1 287/3/1 288/4/1
f 289/7/1 290/8/1 291/9/1 292/10/1
f 293/1/1 294/2/1 295/3/1 296/4/1
f 297/10/1 298/9/1 299/13/1 300/14/1
f 301/10/1 302/9/1 303/13/1 304/14/1
f 305/12/1 306/15/1 307/16/1 308/2/1
f 309/11/1 310/12/1 311/2/1 312/1/1
f 313/7/1 314/8/1 315/9/1 316/10/1
f 317/7/1 318/8/1 319/9/1 320/10/1
f 321/22/1 322/23/1 323/24/1 324/25/1
f 325/22/1 326/23/1 327/24/1 328/25/1
f 329/22/1 330/23/1 331/24/1 332/25/1
f 333/22/1 334/23/1 335/24/1 336/25/1
f 337/22/1 338/23/1 339/24/1 340/25/1
f 341/22/1 342/23/1 343/24/1 344/25/1
f 345/7/1 346/8/1 347/9/1 348/10/1
f 349/4/1 350/3/1 351/5/1 352/6/1
f 353/16/1 354/17/1 355/18/1 356/19/1
f 357/12/1 358/15/1 359/16/1 360/2/1
f 361/22/1 362/23/1 363/24/1 364/25/1
f 365/22/1 366/23/1 367/24/1 368/25/1
f 369/22/1 370/23/1 371/24/1 372/25/1
f 373/22/1 374/23/1 375/24/1 376/25/1
f 377/22/1 378/23/1 379/24/1 380/25/1
f 381/22/1 382/23/1 383/24/1 384/25/1
f 385/7/1 386/8/1 387/9/1 388/10/1
f 389/26/1 390/27/1 391/28/1 392/29/1
f 393/26/1 394/27/1 395/28/1 396/29/1
f 397/26/1 398/27/1 399/28/1 400/29/1
f 401/7/1 402/8/1 403/9/1 404/10/1
f 405/22/1 406/23/1 407/24/1 408/25/1
f 409/22/1 410/23/1 411/24/1 412/25/1
f 413/22/1 414/23/1 415/24/1 416/25/1
f 417/22/1 418/23/1 419/24/1 420/25/1
f 421/22/1 422/23/1 423/24/1 424/25/1
f 425/22/1 426/23/1 427/24/1 428/25/1
f 429/7/1 430/8/1 431/9/1 432/10/1
f 433/7/1 434/8/1 435/9/1 436/10/1
f 437/11/1 438/12/1 439/2/1 440/1/1
f 441/10/1 442/9/1 443/13/1 444/14/1
f 445/10/1 446/9/1 447/13/1 448/14/1
f 449/10/1 450/9/1 451/13/1 452/14/1
f 453/12/1 454/15/1 455/16/1 456/2/1
f 457/4/1 458/3/1 459/5/1 460/6/1
f 461/22/1 462/23/1 463/24/1 464/25/1
f 465/22/1 466/23/1 467/24/1 468/25/1
f 469/22/1 470/23/1 471/24/1 472/25/1
f 473/22/1 474/23/1 475/24/1 476/25/1
f 477/22/1 478/23/1 479/24/1 480/25/1
f 481/22/1 482/23/1 483/24/1 484/25/1
f 485/16/1 486/17/1 487/18/1 488/19/1
f 489/10/1 490/9/1 491/13/1 492/14/1
f 493/10/1 494/9/1 495/13/1 496/14/1
f 497/10/1 498/9/1 499/13/1 500/14/1
f 501/10/1 502/9/1 503/13/1 504/14/1
f 505/10/1 506/9/1 507/13/1 508/14/1
f 509/10/1 510/9/1 511/13/1 512/14/1
f 513/17/1 514/7/1 515/10/1 516/18/1
f 517/16/1 518/17/1 519/18/1 520/19/1
f 521/10/1 522/9/1 523/13/1 524/14/1
f 525/10/1 526/9/1 527/13/1 528/14/1
f 529/10/1 530/9/1 531/13/1 532/14/1
f 533/10/1 534/9/1 535/13/1 536/14/1
f 537/10/1 538/9/1 539/13/1 540/14/1
f 541/10/1 542/9/1 543/13/1 544/14/1

